<svg xmlns="http://www.w3.org/2000/svg" xmlns:xlink="http://www.w3.org/1999/xlink" width="859" height="1526" viewBox="0 0 859 1526" fill="none"><defs><rect id="path_0" x="0" y="0" width="859" height="1526" /><linearGradient id="linear_0" x1="-0.4841587607347402%" y1="44.82450112071877%" x2="84.0622314835473%" y2="87.60500499033277%" gradientUnits="objectBoundingBox"><stop offset="0" stop-color="#FEE47C" stop-opacity="0" /><stop offset="1" stop-color="#FEE37C" stop-opacity="0.5" /></linearGradient><filter id="filter_5" x="0" y="0" width="3117.90332007934" height="3084.893067272911" filterUnits="userSpaceOnUse" color-interpolation-filters="sRGB"><feFlood flood-opacity="0" result="BackgroundImageFix"/>
          <feBlend mode="normal" in="SourceGraphic" in2="BackgroundImageFix" result="shape"/>
          <feGaussianBlur stdDeviation="46.5" result="effect1_foregroundBlur" /></filter><linearGradient id="linear_1" x1="-0.4841587607347402%" y1="44.82450112071877%" x2="84.0622314835473%" y2="87.60500499033277%" gradientUnits="objectBoundingBox"><stop offset="0" stop-color="#FEE47C" stop-opacity="0" /><stop offset="1" stop-color="#FEE37C" stop-opacity="0.7" /></linearGradient><filter id="filter_7" x="0" y="0" width="3363.0147352375047" height="3543.0708069748725" filterUnits="userSpaceOnUse" color-interpolation-filters="sRGB"><feFlood flood-opacity="0" result="BackgroundImageFix"/>
          <feBlend mode="normal" in="SourceGraphic" in2="BackgroundImageFix" result="shape"/>
          <feGaussianBlur stdDeviation="46.5" result="effect1_foregroundBlur" /></filter><linearGradient id="linear_2" x1="20.634702380952387%" y1="99.39454776961504%" x2="85.3176851851852%" y2="8.225860104673027%" gradientUnits="objectBoundingBox"><stop offset="0" stop-color="#FFE47D" stop-opacity="0.31" /><stop offset="1" stop-color="#FFB217" stop-opacity="0" /></linearGradient><filter id="filter_9" x="0" y="0" width="3293.881860768934" height="3813.1807397009657" filterUnits="userSpaceOnUse" color-interpolation-filters="sRGB"><feFlood flood-opacity="0" result="BackgroundImageFix"/>
          <feBlend mode="normal" in="SourceGraphic" in2="BackgroundImageFix" result="shape"/>
          <feGaussianBlur stdDeviation="21.5" result="effect1_foregroundBlur" /></filter><linearGradient id="linear_3" x1="50%" y1="100%" x2="51%" y2="67.461%" gradientUnits="objectBoundingBox"><stop offset="0" stop-color="#FFFFFF" stop-opacity="0.77" /><stop offset="1" stop-color="#FFFFFF" stop-opacity="0.01" /></linearGradient></defs><g opacity="1" transform="translate(0 0)  rotate(0 429.5 763)"><rect fill="#FFFFFF" opacity="1" transform="translate(0 0)  rotate(0 429.5 763)" x="0" y="0" width="859" height="1526" rx="0" /><mask id="bg-mask-0" fill="white"><use xlink:href="#path_0"></use></mask><g mask="url(#bg-mask-0)" ><g opacity="1" transform="translate(-1319.0000000000014 -707)  rotate(0 1558.95166003967 1542.4465336364556)"><g id="路径 1" filter="url(#filter_5)"><path id="路径 1" fill-rule="evenodd" fill="url(#linear_0)" transform="translate(309.4653723569659 318.18387127787105)  rotate(17.43874558467911 1249.4862876827042 1224.2626623585845)" opacity="1" d="M2486.69,1624.36L2007.21,97.87C2006.34,95.06 2004.55,92.63 2002.11,90.97C1932.01,43.88 1705.97,-42.69 1407.33,24.8C1103.17,93.54 540.63,404.52 354.21,1294.89C288.14,1610.41 139,2153.08 35.17,2381.03C29.65,2392.36 31.31,2405.87 39.4,2415.52C47.48,2425.18 60.5,2429.17 72.61,2425.72L2459.86,1675.77C2470.24,1672.51 2478.89,1665.26 2483.92,1655.62C2488.96,1645.98 2489.95,1634.74 2486.69,1624.36Z " /></g><g id="路径 1" filter="url(#filter_7)"><path id="路径 1" fill-rule="evenodd" fill="url(#linear_1)" transform="translate(617.5985993491099 729.103970675111)  rotate(17.43874558467911 1063.9087682696425 1042.4314328123255)" opacity="1" d="M2115.53,1377.3L1709.36,84.19C1708.46,81.24 1706.57,78.69 1704.01,76.96C1643.48,36.76 1451.54,-36.11 1198.31,21.12C939.32,79.65 460.33,344.44 301.6,1102.57C246.3,1366.67 122.65,1817.67 34.48,2017.29C29.05,2028.71 30.8,2042.26 38.97,2051.93C47.14,2061.59 60.21,2065.58 72.38,2062.13L2088.7,1428.7C2110.3,1421.91 2122.31,1398.9 2115.53,1377.3Z " /></g><g id="路径 1" filter="url(#filter_9)"><path id="路径 1" fill-rule="evenodd" fill="url(#linear_2)" transform="translate(1093.9409303844673 1388.090369850483)  rotate(0 552.9999999999999 518.4999999999999)" opacity="1" d="M894.86,930.64L1101.22,61.94C1104.49,49.97 1099.04,37.33 1088.09,31.48C1045.34,10.5 953.99,-15.05 838.28,11.09C702.22,41.82 450.59,180.85 367.2,578.93C342.77,695.57 179.1,850.21 76.76,952.3C63.88,965.82 60.83,985.95 69.13,1002.67C77.44,1019.4 95.32,1029.14 113.87,1027.05L858.54,962.01C876.14,960.47 890.78,947.83 894.86,930.64Z " /></g></g><path id="矩形 1" fill-rule="evenodd" fill="url(#linear_3)" transform="translate(0 0)  rotate(0 429.5 763)" opacity="1" d="M0,1526L859,1526L859,0L0,0L0,1526Z " /></g></g></svg>