<svg xmlns="http://www.w3.org/2000/svg" xmlns:xlink="http://www.w3.org/1999/xlink" width="2375" height="1526" viewBox="0 0 2375 1526" fill="none"><defs><rect id="path_0" x="0" y="0" width="2375" height="1526" /><linearGradient id="linear_0" x1="-0.4841587607347402%" y1="44.82450112071877%" x2="84.0622314835473%" y2="87.60500499033277%" gradientUnits="objectBoundingBox"><stop offset="0" stop-color="#FF8D1A" stop-opacity="0" /><stop offset="1" stop-color="#FF5733" stop-opacity="0.31" /></linearGradient><filter id="filter_5" x="0" y="0" width="6402.598591188922" height="6335.200201254507" filterUnits="userSpaceOnUse" color-interpolation-filters="sRGB"><feFlood flood-opacity="0" result="BackgroundImageFix"/>
          <feBlend mode="normal" in="SourceGraphic" in2="BackgroundImageFix" result="shape"/>
          <feGaussianBlur stdDeviation="46.5" result="effect1_foregroundBlur" /></filter><linearGradient id="linear_1" x1="-0.4841587607347402%" y1="44.82450112071877%" x2="84.0622314835473%" y2="87.60500499033277%" gradientUnits="objectBoundingBox"><stop offset="0" stop-color="#FF8D1A" stop-opacity="0" /><stop offset="1" stop-color="#FF5733" stop-opacity="0.434" /></linearGradient><filter id="filter_7" x="0" y="0" width="6393.2326940794155" height="6429.623699280695" filterUnits="userSpaceOnUse" color-interpolation-filters="sRGB"><feFlood flood-opacity="0" result="BackgroundImageFix"/>
          <feBlend mode="normal" in="SourceGraphic" in2="BackgroundImageFix" result="shape"/>
          <feGaussianBlur stdDeviation="50" result="effect1_foregroundBlur" /></filter><linearGradient id="linear_2" x1="-0.48401525257098205%" y1="44.824501120718786%" x2="84.062254245343%" y2="87.60500499033277%" gradientUnits="objectBoundingBox"><stop offset="0" stop-color="#FF8D1A" stop-opacity="0" /><stop offset="1" stop-color="#FF5733" stop-opacity="0.5579999999999999" /></linearGradient><filter id="filter_9" x="0" y="0" width="7192.511261115338" height="7175.750695634142" filterUnits="userSpaceOnUse" color-interpolation-filters="sRGB"><feFlood flood-opacity="0" result="BackgroundImageFix"/>
          <feBlend mode="normal" in="SourceGraphic" in2="BackgroundImageFix" result="shape"/>
          <feGaussianBlur stdDeviation="31.5" result="effect1_foregroundBlur" /></filter><linearGradient id="linear_3" x1="20.634702380952387%" y1="99.39454776961504%" x2="82.229%" y2="13.714%" gradientUnits="objectBoundingBox"><stop offset="0" stop-color="#FF5733" stop-opacity="0.5" /><stop offset="1" stop-color="#FF5733" stop-opacity="0" /></linearGradient><filter id="filter_11" x="0" y="0" width="7309" height="7585" filterUnits="userSpaceOnUse" color-interpolation-filters="sRGB"><feFlood flood-opacity="0" result="BackgroundImageFix"/>
          <feBlend mode="normal" in="SourceGraphic" in2="BackgroundImageFix" result="shape"/>
          <feGaussianBlur stdDeviation="21.5" result="effect1_foregroundBlur" /></filter><linearGradient id="linear_4" x1="0%" y1="0%" x2="100%" y2="100%" gradientUnits="objectBoundingBox"><stop offset="0" stop-color="#000000" stop-opacity="0.64" /><stop offset="1" stop-color="#000000" stop-opacity="0.71" /></linearGradient></defs><g opacity="1" transform="translate(0 0)  rotate(0 1187.5 763)"><rect fill="#FFFFFF" opacity="1" transform="translate(0 0)  rotate(0 1187.5 763)" x="0" y="0" width="2375" height="1526" rx="0" /><mask id="bg-mask-0" fill="white"><use xlink:href="#path_0"></use></mask><g mask="url(#bg-mask-0)" ><g opacity="1" transform="translate(-1928.1163470397073 -2657.311849640348)  rotate(0 3201.299295594461 3167.6001006272536)"><g id="路径 1" filter="url(#filter_5)"><path id="路径 1" fill-rule="evenodd" fill="url(#linear_0)" transform="translate(635.5564343843716 653.3573519768438)  rotate(17.43874558467911 2565.7428612100894 2514.24274865041)" opacity="1" d="M5119.2,3377.14L4120.26,196.48C4119.38,193.64 4117.58,191.18 4115.14,189.49C3975.84,93.44 3508.77,-88.95 2889.87,50.94C2265.29,192.11 1110.15,830.75 727.34,2659.29C584.17,3343.18 250.96,4546.72 37.68,4961.58C31.82,4972.45 33.07,4985.78 40.85,4995.37C48.62,5004.96 61.4,5008.95 73.25,5005.47L5092.38,3428.54C5113.98,3421.75 5125.98,3398.74 5119.2,3377.14Z " /></g><g id="路径 1" filter="url(#filter_7)"><path id="路径 1" fill-rule="evenodd" fill="url(#linear_1)" transform="translate(1589.2254226258626 1639.6848027904766)  rotate(17.43874558467911 1607.390924413845 1575.1270468498715)" opacity="1" d="M3202.5,2101.11L2581.76,124.65C2580.9,121.86 2579.12,119.44 2576.71,117.79C2487.81,57.38 2196.21,-55.28 1810.45,31.91C1419.16,120.35 695.49,520.45 455.67,1665.99C368.76,2081.12 170.08,2801.88 36.28,3082.7C30.6,3093.9 32.11,3107.4 40.11,3117.07C48.12,3126.74 61.1,3130.75 73.16,3127.27L3175.67,2152.51C3197.27,2145.72 3209.28,2122.71 3202.5,2101.11Z " /></g><g id="路径 1" filter="url(#filter_9)"><path id="路径 1" fill-rule="evenodd" fill="url(#linear_2)" transform="translate(2158.631181895471 2179.109201444809)  rotate(17.43874558467911 1437.624448662198 1408.7661463722618)" opacity="1" d="M2862.97,1875.06L2309.26,112.05C2308.38,109.19 2306.55,106.71 2304.07,105.01C2223.99,50.91 1963.55,-49.28 1619.24,28.54C1269.28,107.64 764.98,503.15 550.49,1527.7C470.69,1908.84 55.39,2372.43 5.01,2744.28C3.31,2760.98 10.26,2777.39 23.45,2787.78C36.63,2798.17 54.21,2801.09 70.05,2795.53L2836.14,1926.46C2857.74,1919.67 2869.75,1896.66 2862.97,1875.06Z " /></g><g id="路径 1" filter="url(#filter_11)"><path id="路径 1" fill-rule="evenodd" fill="url(#linear_3)" transform="translate(2641 2842)  rotate(0 1013.4999999999998 950.5)" opacity="1" d="M1634.34,1730.01L2022.62,95.13C2025.5,84.07 2020.75,72.43 2010.94,66.56C1941.8,27.17 1765.04,-31.35 1536.34,20.33C1286.98,76.67 825.81,331.54 672.99,1061.27C622.26,1303.48 244.14,1635.04 72.81,1814.76C60.03,1829 57.4,1849.67 66.21,1866.67C75.02,1883.66 93.43,1893.42 112.44,1891.18L1598.02,1761.39C1615.62,1759.85 1630.26,1747.2 1634.34,1730.01Z " /></g></g><path id="矩形 1" fill-rule="evenodd" fill="url(#linear_4)" transform="translate(0 0)  rotate(0 1187.5 763)" opacity="1" d="M0,1526L2375,1526L2375,0L0,0L0,1526Z " /></g></g></svg>