<svg xmlns="http://www.w3.org/2000/svg" xmlns:xlink="http://www.w3.org/1999/xlink" width="405.68453278582456" height="560.6833204762474" viewBox="0 0 405.68453278582456 560.6833204762474" fill="none"><defs><linearGradient id="linear_0" x1="0%" y1="17.698%" x2="100%" y2="100%" gradientUnits="objectBoundingBox"><stop offset="0" stop-color="#FFB963" stop-opacity="1" /><stop offset="0.9934" stop-color="#FF8A8A" stop-opacity="1" /></linearGradient></defs><path id="减去顶层" fill-rule="evenodd" fill="url(#linear_0)" transform="translate(-5.684341886080802e-14 -1.4210854715202004e-14)  rotate(0 202.8422663929123 280.3416602381237)" opacity="1" d="M391.55 8.13C382.63 1.02 370.92 -1.6 359.81 0.96L29.02 77.29C12.02 81.23 0 96.36 0 113.8L0 421.46C0 437.91 10.74 452.42 26.43 457.26L155 496.81L155 212.39C155 200.96 160.24 190.14 169.2 183.05C178.16 175.93 189.86 173.31 201 175.93L275.65 193.45L275.65 159.34C275.65 147.91 280.89 137.09 289.84 130C298.8 122.88 310.5 120.26 321.64 122.88L405.69 142.6L405.69 37.44C405.69 26.02 400.47 15.25 391.55 8.13ZM298.47 147.66C299.36 146.55 300.37 145.55 301.5 144.66C302.61 143.78 303.8 143.03 305.08 142.42C306.34 141.82 307.65 141.37 309.02 141.06C310.38 140.75 311.76 140.61 313.15 140.62C314.57 140.62 315.98 140.79 317.37 141.11L405.69 161.84L405.69 223.96L294.37 197.84L294.37 159.34C294.37 157.92 294.53 156.52 294.85 155.14C295.16 153.78 295.63 152.46 296.24 151.2C296.85 149.93 297.6 148.75 298.47 147.66ZM175.59 204.25C174.99 205.51 174.52 206.83 174.2 208.19C173.88 209.57 173.72 210.97 173.72 212.39L173.72 502.57L275.65 533.93L275.65 212.68L196.72 194.16C195.33 193.84 193.93 193.67 192.51 193.67C191.12 193.66 189.73 193.8 188.37 194.11C187.01 194.42 185.7 194.87 184.43 195.47C183.16 196.08 181.96 196.83 180.85 197.71C179.72 198.6 178.71 199.6 177.83 200.71C176.95 201.8 176.21 202.98 175.59 204.25ZM294.37 217.07L405.69 243.19L405.69 523.23C405.69 535.12 400.04 546.3 390.49 553.35C380.93 560.43 368.58 562.52 357.22 559.02L294.37 539.69L294.37 217.07Z" /></svg>