<svg xmlns="http://www.w3.org/2000/svg" xmlns:xlink="http://www.w3.org/1999/xlink" width="756.6609806332704" height="756.6609806332704" viewBox="0 0 756.6609806332704 756.6609806332704" fill="none"><defs><rect id="path_0" x="0" y="0" width="756.6609806332704" height="756.6609806332704" /><radialGradient id="linear_0" cx="0%" cy="17.698%" fx="0%" fy="17.698%" r="1.2951300785635396" gradientTransform="translate(0 0.17698) scale(1.4215719182302025 1) rotate(49.47902799447587) scale(1 1) translate(0 -0.17698)" ><stop offset="0" stop-color="#FFDBB0" stop-opacity="1" /><stop offset="1" stop-color="#FFEDED" stop-opacity="1" /></radialGradient></defs><g opacity="1" transform="translate(0 0)  rotate(0 378.3304903166352 378.3304903166352)"><mask id="bg-mask-0" fill="white"><use xlink:href="#path_0"></use></mask><g mask="url(#bg-mask-0)" ><path id="减去顶层" fill-rule="evenodd" fill="url(#linear_0)" transform="translate(161.39501921980263 69.94111653733842)  rotate(0 216.93547109683254 308.3893737792969)" opacity="1" d="M165.772 538.53L8.47 490.127C3.44 488.577 0 483.927 0 478.667L0 106.587C0 100.997 3.86 96.1572 9.3 94.8972L419.17 0.307194C422.73 -0.512806 426.48 0.327194 429.34 2.60719C432.2 4.88719 433.87 8.33719 433.87 11.9972L433.87 159.714L343.989 138.622C332.079 135.822 319.559 138.622 309.989 146.232C300.409 153.812 294.799 165.392 294.799 177.612L294.799 214.093L214.962 195.359C203.052 192.559 190.532 195.359 180.962 202.969C171.382 210.549 165.772 222.129 165.772 234.349L165.772 538.53Z M294.799 578.233L185.792 544.69L185.792 234.349C185.792 232.829 185.972 231.339 186.312 229.869C186.642 228.399 187.142 226.999 187.792 225.649C188.452 224.289 189.252 223.029 190.182 221.859C191.132 220.679 192.202 219.609 193.412 218.649C194.602 217.709 195.882 216.909 197.252 216.259C198.592 215.619 200.002 215.129 201.462 214.809C202.922 214.479 204.392 214.319 205.892 214.319C207.402 214.329 208.902 214.509 210.392 214.859L294.799 234.662L294.799 578.233Z M433.87 267.291L433.87 604.777C433.87 608.587 432.06 612.167 429 614.427C425.94 616.697 421.98 617.367 418.34 616.247L314.819 584.393L314.819 239.359L433.87 267.291Z M433.87 180.282L433.87 246.728L314.819 218.791L314.819 177.612C314.819 176.092 314.999 174.602 315.339 173.132C315.669 171.662 316.169 170.262 316.819 168.912C317.479 167.552 318.279 166.292 319.209 165.122C320.159 163.942 321.229 162.872 322.439 161.912C323.629 160.972 324.909 160.172 326.279 159.522C327.619 158.882 329.029 158.392 330.489 158.072C331.949 157.742 333.419 157.582 334.919 157.582C336.429 157.592 337.929 157.772 339.419 158.122L433.87 180.282Z " /></g></g></svg>