<svg xmlns="http://www.w3.org/2000/svg" xmlns:xlink="http://www.w3.org/1999/xlink" width="808.4082945208916" height="643.9538970933643" viewBox="0 0 808.4082945208916 643.9538970933643" fill="none"><defs><rect id="path_0" x="0" y="0" width="808.4082945208916" height="643.9538970933643" /><linearGradient id="linear_0" x1="0%" y1="17.698%" x2="69.57%" y2="50%" gradientUnits="objectBoundingBox"><stop offset="0" stop-color="#FFFFFF" stop-opacity="1" /><stop offset="1" stop-color="#FFFFFF" stop-opacity="0.31" /></linearGradient></defs><g opacity="1" transform="translate(0 0)  rotate(0 404.2041472604458 321.97694854668214)"><mask id="bg-mask-0" fill="white"><use xlink:href="#path_0"></use></mask><g mask="url(#bg-mask-0)" ><path id="并集" fill-rule="evenodd" fill="url(#linear_0)" transform="translate(202 91.46)  rotate(0 360.00000000000006 534.5)" opacity="1" d="M719.997 154.11L719.997 792.44C719.997 821.14 701.347 846.45 673.957 855.03L504.55 908.024C497.654 926.742 482.393 941.75 462.54 947.969L85.2 1066.01C65.3 1072.24 43.58 1068.63 26.74 1056.22C9.9 1043.87 0 1024.24 0 1003.35L0 158.539C0 138.529 9.19 119.559 24.88 107.149C40.58 94.6791 61.08 90.0891 80.61 94.6791L211.417 125.363L211.417 65.6C211.417 45.59 220.607 26.62 236.297 14.21C251.997 1.74 272.497 -2.85 292.027 1.74L669.357 90.25C698.997 97.2 719.997 123.66 719.997 154.11Z M244.227 133.059L244.227 65.6C244.227 63.12 244.507 60.67 245.067 58.26C245.617 55.87 246.437 53.56 247.507 51.35C248.577 49.13 249.887 47.06 251.417 45.14C252.967 43.21 254.727 41.46 256.707 39.89C258.657 38.34 260.757 37.04 262.987 35.97C265.207 34.92 267.507 34.12 269.897 33.59C272.287 33.05 274.707 32.79 277.147 32.8C279.637 32.81 282.087 33.1 284.527 33.68L661.877 122.19C665.537 123.05 668.927 124.48 672.067 126.49C673.597 127.47 675.037 128.57 676.377 129.79C677.727 131.01 678.957 132.33 680.087 133.75C681.217 135.17 682.217 136.67 683.097 138.25C683.977 139.84 684.717 141.49 685.327 143.2C686.567 146.72 687.187 150.35 687.187 154.11L687.187 792.44C687.187 795.99 686.637 799.43 685.527 802.77C684.437 806.03 682.867 809.06 680.817 811.84C678.767 814.63 676.347 817.03 673.547 819.04C670.677 821.1 667.547 822.67 664.157 823.73L508.58 872.392L508.58 247.049C508.58 216.599 487.58 190.139 457.94 183.189L244.227 133.059Z M244.227 166.756L450.46 215.129C454.12 215.989 457.51 217.419 460.65 219.429C462.18 220.409 463.62 221.509 464.96 222.729C466.31 223.949 467.54 225.269 468.67 226.689C469.8 228.109 470.8 229.609 471.68 231.189C472.56 232.779 473.3 234.429 473.91 236.139C475.15 239.659 475.77 243.289 475.77 247.049L475.77 882.655L286.807 941.76C284.347 942.54 281.817 943.01 279.247 943.18C276.697 943.36 274.167 943.23 271.647 942.81C269.127 942.39 266.697 941.68 264.337 940.69C261.957 939.69 259.697 938.4 257.567 936.84C255.487 935.31 253.607 933.55 251.947 931.58C250.307 929.64 248.907 927.53 247.757 925.25C246.607 922.97 245.727 920.59 245.137 918.11C244.527 915.58 244.227 913.02 244.227 910.41L244.227 166.756Z M211.417 159.06L211.417 910.41C211.417 931.3 221.317 950.93 238.157 963.28C246.484 969.416 256.003 973.401 265.906 975.108L75.39 1034.7C72.93 1035.48 70.4 1035.95 67.83 1036.12C65.28 1036.3 62.75 1036.17 60.23 1035.75C57.71 1035.33 55.28 1034.62 52.92 1033.63C50.54 1032.63 48.28 1031.34 46.15 1029.78C44.07 1028.25 42.19 1026.49 40.53 1024.52C38.89 1022.58 37.49 1020.47 36.34 1018.19C35.19 1015.91 34.31 1013.53 33.72 1011.05C33.11 1008.52 32.81 1005.96 32.81 1003.35L32.81 158.539C32.81 156.059 33.09 153.609 33.65 151.199C34.2 148.809 35.02 146.499 36.09 144.289C37.16 142.069 38.47 139.999 40 138.079C41.55 136.149 43.31 134.399 45.29 132.829C47.24 131.279 49.34 129.979 51.57 128.909C53.79 127.859 56.09 127.059 58.48 126.529C60.87 125.989 63.29 125.729 65.73 125.739C68.22 125.749 70.67 126.039 73.11 126.619L211.417 159.06Z " /></g></g></svg>