<?xml version="1.0" standalone="no"?>
<!DOCTYPE svg PUBLIC "-//W3C//DTD SVG 1.1//EN" "http://www.w3.org/Graphics/SVG/1.1/DTD/svg11.dtd" >
<svg xmlns="http://www.w3.org/2000/svg">
<metadata>Generated by IcoMoon</metadata>
<defs>
<font id="AMCTR" horiz-adv-x="1024">
<font-face units-per-em="1024" ascent="960" descent="-64" />
<missing-glyph horiz-adv-x="1024" />
<glyph unicode="&#x20;" horiz-adv-x="512" d="" />
<glyph unicode="&#xe900;" glyph-name="Cloud" d="M808.14 676.937c-11.215 26.819-27.063 50.712-47.543 71.436-20.48 20.968-43.886 37.059-70.461 48.518-27.794 11.947-56.564 17.798-86.796 17.798-24.137 0-47.543-3.901-70.217-11.459-21.943-7.558-42.423-18.286-60.952-32.183s-34.621-29.989-48.030-48.762c-7.070-9.752-13.41-19.992-18.773-30.72-12.922 1.707-26.331 2.682-39.741 2.682-39.497 0-77.044-7.802-113.128-23.162q-51.931-22.309-92.16-62.903c-26.819-26.819-47.543-58.027-62.171-93.135-15.116-36.084-22.674-74.118-22.674-113.859q0-59.611 22.674-114.103c14.629-34.865 35.352-66.072 62.171-93.135q40.229-40.594 92.16-62.903c36.084-15.36 73.63-23.162 113.128-23.162h350.842c32.427 0 63.39 6.339 92.891 18.773 28.526 11.947 53.882 29.013 75.825 51.2 22.187 21.943 39.253 47.299 51.2 75.825 12.434 29.501 18.773 60.465 18.773 92.891 0 25.6-3.901 50.469-11.947 74.362-7.558 23.406-18.773 45.105-33.402 65.097-14.385 19.749-31.451 36.815-51.2 51.444-11.215 8.046-22.918 15.36-35.109 21.455 1.219 10.24 1.95 20.236 1.95 30.476 0 30.476-5.851 59.49-17.31 87.528zM780.102 195.901c-20.236-8.533-41.448-12.922-63.634-12.922h-350.842c-29.013 0-57.051 5.608-83.627 17.067-25.6 10.971-48.274 26.575-68.267 46.811-19.992 19.992-35.352 43.154-46.080 69.242-11.459 27.063-17.067 55.345-17.067 85.090s5.608 58.027 17.067 85.090c10.728 26.088 26.088 49.006 46.080 69.242 19.749 19.992 42.667 35.596 68.267 46.568 26.575 11.459 54.613 17.067 83.627 17.067q27.429 0 53.394-6.583l33.89-8.777 10.971 33.402c4.876 14.629 11.947 28.526 21.211 41.204 9.021 12.434 19.505 23.162 31.939 32.427 12.19 9.265 25.6 16.335 40.229 21.211 14.872 5.12 30.232 7.558 46.080 7.558q29.623 0 57.051-11.703c17.554-7.558 33.158-18.286 46.568-32.183 13.653-13.653 24.381-29.745 31.695-47.787q11.703-27.794 11.703-58.514 0-21.577-5.851-43.154l-9.509-34.133 33.402-11.459c16.579-5.608 31.695-13.41 45.592-23.65 13.653-9.996 25.356-21.943 35.352-35.352 9.752-13.653 17.31-28.282 22.674-44.13 5.364-16.335 8.046-33.402 8.046-50.956 0-22.187-4.389-43.398-12.922-63.634-8.29-19.749-19.749-37.059-34.865-52.175s-32.427-26.575-52.175-34.865z" />
<glyph unicode="&#xe901;" glyph-name="CloudDonnection" d="M858.608 564.075c19.749-14.629 36.815-31.695 51.2-51.444 14.629-19.992 25.844-41.691 33.402-65.097 8.046-23.893 11.947-48.762 11.947-74.362 0-32.427-6.339-63.39-18.773-92.891-11.947-28.526-29.013-53.882-51.2-75.825-21.943-22.187-47.299-39.253-75.825-51.2-29.501-12.434-60.465-18.773-92.891-18.773v75.093c22.187 0 43.398 4.389 63.634 12.922 19.749 8.29 37.059 19.749 52.175 34.865s26.575 32.427 34.865 52.175c8.533 20.236 12.922 41.448 12.922 63.634 0 17.554-2.682 34.621-8.046 50.956-5.364 15.848-12.922 30.476-22.674 44.13-9.996 13.41-21.699 25.356-35.352 35.352-13.897 10.24-29.013 18.042-45.592 23.65l-33.402 11.459 9.509 34.133q5.851 21.577 5.851 43.154 0 30.72-11.703 58.514c-7.314 18.042-18.042 34.133-31.695 47.787-13.41 13.897-29.013 24.625-46.568 32.183q-27.429 11.703-57.051 11.703c-15.848 0-31.208-2.438-46.080-7.558-14.629-4.876-28.038-11.947-40.229-21.211-12.434-9.265-22.918-19.992-31.939-32.427-9.265-12.678-16.335-26.575-21.211-41.204l-10.971-33.402-33.89 8.777c-17.31 4.389-35.109 6.583-53.394 6.583-29.013 0-57.051-5.608-83.627-17.067-25.6-10.971-48.518-26.575-68.267-46.568-19.992-20.236-35.352-43.154-46.080-69.242-11.459-27.063-17.067-55.345-17.067-85.090s5.608-58.027 17.067-85.090c10.728-26.088 26.088-49.25 46.080-69.242 19.992-20.236 42.667-35.84 68.267-46.811 26.575-11.459 54.613-17.067 83.627-17.067h117.187l-46.768 45.066 52.175 54.126 106.545-102.644c4.632-4.632 8.29-9.996 10.728-16.091 2.438-5.851 3.657-12.19 3.901-18.53 0-6.827-0.975-13.166-3.657-19.505-2.682-6.583-6.583-12.19-11.703-17.067l-105.813-102.156-52.175 54.126 49.381 47.582h-119.801c-39.497 0-77.044 7.802-113.128 23.162q-51.931 22.309-92.16 62.903c-26.819 27.063-47.543 58.27-62.171 93.135q-22.674 54.491-22.674 114.103c0 39.741 7.558 77.775 22.674 113.859 14.629 35.109 35.352 66.316 62.171 93.135q40.229 40.594 92.16 62.903c36.084 15.36 73.63 23.162 113.128 23.162 13.41 0 26.819-0.975 39.741-2.682 5.364 10.728 11.703 20.968 18.773 30.72 13.41 18.773 29.501 34.865 48.030 48.762s39.010 24.625 60.952 32.183c22.674 7.558 46.080 11.459 70.217 11.459 30.232 0 59.002-5.851 86.796-17.798 26.575-11.459 49.981-27.55 70.461-48.518 20.48-20.724 36.328-44.617 47.543-71.436 11.459-28.038 17.31-57.051 17.31-87.528 0-10.24-0.731-20.236-1.95-30.476 12.19-6.095 23.893-13.41 35.109-21.455z" />
<glyph unicode="&#xe902;" glyph-name="CloudDownload" d="M741.181 552.905c3.901 14.385 5.851 28.77 5.851 43.154 0 20.48-3.901 39.985-11.703 58.514-7.314 18.042-18.042 34.133-31.695 47.787-13.41 13.897-29.013 24.625-46.568 32.183-18.286 7.802-37.303 11.703-57.051 11.703-15.848 0-31.208-2.438-46.080-7.558-14.629-4.876-28.038-11.947-40.229-21.211-12.434-9.265-22.918-19.992-31.939-32.427-9.265-12.678-16.335-26.575-21.211-41.204l-10.971-33.402-33.89 8.777c-17.31 4.389-35.109 6.583-53.394 6.583-29.013 0-57.051-5.608-83.627-17.067-25.6-10.971-48.518-26.575-68.267-46.568-19.992-20.236-35.352-43.154-46.080-69.242-11.459-27.063-17.067-55.345-17.067-85.090s5.608-58.027 17.067-85.090c10.728-26.088 26.088-49.25 46.080-69.242 19.992-20.236 42.667-35.84 68.267-46.811 26.575-11.459 54.613-17.067 83.627-17.067h29.501v-75.093h-29.501c-39.497 0-77.044 7.802-113.128 23.162-34.621 14.872-65.341 35.84-92.16 62.903s-47.543 58.27-62.171 93.135c-15.116 36.328-22.674 74.362-22.674 114.103s7.558 77.775 22.674 113.859c14.629 35.109 35.352 66.316 62.171 93.135 26.819 27.063 57.539 48.030 92.16 62.903 36.084 15.36 73.63 23.162 113.128 23.162 13.41 0 26.819-0.975 39.741-2.682 5.364 10.728 11.703 20.968 18.773 30.72 13.41 18.773 29.501 34.865 48.030 48.762s39.010 24.625 60.952 32.183c22.674 7.558 46.080 11.459 70.217 11.459 30.232 0 59.002-5.851 86.796-17.798 26.575-11.459 49.981-27.55 70.461-48.518 20.48-20.724 36.328-44.617 47.543-71.436 11.459-28.038 17.31-57.051 17.31-87.528 0-10.24-0.731-20.236-1.95-30.476 12.19-6.095 23.893-13.41 35.109-21.455 19.749-14.629 36.815-31.695 51.2-51.444 14.629-19.992 25.844-41.691 33.402-65.097 8.046-23.893 11.947-48.762 11.947-74.362 0-32.427-6.339-63.39-18.773-92.891-11.947-28.526-29.013-53.882-51.2-75.825-21.943-22.187-47.299-39.253-75.825-51.2-29.501-12.434-60.465-18.773-92.891-18.773h-58.27v75.093h58.27c22.187 0 43.398 4.389 63.634 12.922 19.749 8.29 37.059 19.749 52.175 34.865s26.575 32.427 34.865 52.175c8.533 20.236 12.922 41.448 12.922 63.634 0 17.554-2.682 34.621-8.046 50.956-5.364 15.848-12.922 30.476-22.674 44.13-9.996 13.41-21.699 25.356-35.352 35.352-13.897 10.24-29.013 18.042-45.592 23.65l-33.402 11.459 9.509 34.133zM487.753 257.656l-80.835 84.831-54.37-51.931 134.339-140.922 0.488-0.244c4.876-5.12 10.728-8.777 17.067-11.703 6.339-2.682 12.922-4.145 19.992-4.145 7.314-0.244 14.385 1.219 21.211 3.901 7.070 2.926 13.166 7.070 18.286 12.922l134.095 140.19-54.37 51.931-80.811-84.636v299.864h-75.093v-300.059z" />
<glyph unicode="&#xe903;" glyph-name="CloudUpload" d="M876.739 353.225c0 17.554-2.682 34.621-8.046 50.956-5.364 15.848-12.922 30.476-22.674 44.13-9.996 13.41-21.699 25.356-35.352 35.352-13.897 10.24-29.013 18.042-45.592 23.65l-33.402 11.459 9.509 34.133c3.901 14.385 5.851 28.77 5.851 43.154 0 20.48-3.901 39.985-11.703 58.514-7.314 18.042-18.042 34.133-31.695 47.787-13.41 13.897-29.013 24.625-46.568 32.183-18.286 7.802-37.303 11.703-57.051 11.703-15.848 0-31.208-2.438-46.080-7.558-14.629-4.876-28.038-11.947-40.229-21.211-12.434-9.265-22.918-19.992-31.939-32.427-9.265-12.678-16.335-26.575-21.211-41.204l-10.971-33.402-33.89 8.777c-17.31 4.389-35.109 6.583-53.394 6.583-29.013 0-57.051-5.608-83.627-17.067-25.6-10.971-48.518-26.575-68.267-46.568-19.992-20.236-35.352-43.154-46.080-69.242-11.459-27.063-17.067-55.345-17.067-85.090s5.608-58.027 17.067-85.090c10.728-26.088 26.088-49.25 46.080-69.242 19.992-20.236 42.667-35.84 68.267-46.811 26.575-11.459 54.613-17.067 83.627-17.067h29.501v-75.093h-29.501c-39.497 0-77.044 7.802-113.128 23.162-34.621 14.872-65.341 35.84-92.16 62.903s-47.543 58.27-62.171 93.135c-15.116 36.328-22.674 74.362-22.674 114.103s7.558 77.775 22.674 113.859c14.629 35.109 35.352 66.316 62.171 93.135 26.819 27.063 57.539 48.030 92.16 62.903 36.084 15.36 73.63 23.162 113.128 23.162 13.41 0 26.819-0.975 39.741-2.682 5.364 10.728 11.703 20.968 18.773 30.72 13.41 18.773 29.501 34.865 48.030 48.762s39.010 24.625 60.952 32.183c22.674 7.558 46.080 11.459 70.217 11.459 30.232 0 59.002-5.851 86.796-17.798 26.575-11.459 49.981-27.55 70.461-48.518 20.48-20.724 36.328-44.617 47.543-71.436 11.459-28.038 17.31-57.051 17.31-87.528 0-10.24-0.731-20.236-1.95-30.476 12.19-6.095 23.893-13.41 35.109-21.455 19.749-14.629 36.815-31.695 51.2-51.444 14.629-19.992 25.844-41.691 33.402-65.097 8.046-23.893 11.947-48.762 11.947-74.362 0-32.427-6.339-63.39-18.773-92.891-11.947-28.526-29.013-53.882-51.2-75.825-21.943-22.187-47.299-39.253-75.825-51.2-29.501-12.434-60.465-18.773-92.891-18.773h-58.27v75.093h58.27c22.187 0 43.398 4.389 63.634 12.922 19.749 8.29 37.059 19.749 52.175 34.865s26.575 32.427 34.865 52.175c8.533 20.236 12.922 41.448 12.922 63.634zM524.515 515.434c7.558 0.244 14.872-1.219 21.943-4.145 7.314-2.926 13.653-7.314 19.017-12.922l153.356-160.67-54.37-51.931-101.615 106.42v-277.65h-75.093v277.692l-101.478-106.462-54.37 51.931 153.6 160.67c5.12 5.364 10.971 9.509 17.798 12.434s13.897 4.632 21.211 4.632z" />
<glyph unicode="&#xe904;" glyph-name="File" d="M163.508 117.815c9.996-23.65 24.625-43.642 44.13-59.733 18.042-14.872 39.497-26.088 64.61-33.402 22.674-6.583 47.787-9.752 75.581-9.752h346.21c65.585 0 115.322 16.335 148.968 48.762 32.67 31.451 49.006 76.556 49.006 135.070v305.737c0 37.059-9.996 73.387-30.232 108.739-6.339 10.971-13.166 21.211-20.48 30.72-4.145 5.12-7.558 9.021-10.484 12.19l-151.162 157.745c-2.194 2.926-5.12 6.339-8.29 9.752-8.046 9.021-17.554 17.067-28.526 24.381-14.629 9.752-30.964 17.554-49.006 23.162-21.455 6.583-44.861 9.996-69.973 9.996h-176.030c-27.794 0-52.907-3.17-75.581-9.752-25.112-7.314-46.568-18.53-64.61-33.402-19.505-16.091-34.133-36.084-44.13-59.733s-14.872-50.712-14.872-80.945v-498.59c0-30.232 4.876-57.295 14.872-80.945zM624.351 650.052v112.796l152.337-158.876c0.812-0.812 1.946-2.055 3.262-3.657h-99.279c-14.385 0-25.844 2.682-34.377 8.046-6.095 3.657-10.971 9.021-14.629 15.848-3.17 5.608-5.12 11.947-6.339 18.773-0.731 3.413-0.975 5.608-0.975 7.070zM549.258 804.416v-154.364c0-5.851 0.731-12.678 1.95-20.236 2.682-14.872 7.558-28.526 14.141-41.204 10.24-18.53 23.893-33.402 41.204-44.13 20.724-12.922 45.592-19.261 74.118-19.261h134.534c1.141-6.907 1.712-13.817 1.712-20.724v-305.737c0-37.303-8.533-64.366-25.844-80.945-19.261-18.53-51.444-27.794-97.036-27.794h-346.21c-40.716 0-71.436 8.533-92.404 25.844-21.211 17.554-31.695 45.105-31.695 82.895v498.59c0 37.79 10.484 65.341 31.695 82.895 20.968 17.31 51.688 25.844 92.404 25.844h176.030c8.921 0 17.384-0.558 25.4-1.674z" />
<glyph unicode="&#xe905;" glyph-name="FileAdd" d="M148.635 697.351v-498.59c0-30.232 4.876-57.295 14.872-80.945s24.625-43.642 44.13-59.733c18.042-14.872 39.497-26.088 64.61-33.402 22.674-6.583 47.787-9.752 75.581-9.752h346.21c65.585 0 115.322 16.335 148.968 48.762 32.67 31.451 49.006 76.556 49.006 135.070v305.737c0 37.059-9.996 73.387-30.232 108.739-6.339 10.971-13.166 21.211-20.48 30.72-4.145 5.12-7.558 9.021-10.484 12.19l-151.162 157.745c-2.194 2.926-5.12 6.339-8.29 9.752-8.046 9.021-17.554 17.067-28.526 24.381-14.629 9.752-30.964 17.554-49.006 23.162-21.455 6.583-44.861 9.996-69.973 9.996h-176.030c-27.794 0-52.907-3.17-75.581-9.752-25.112-7.314-46.568-18.53-64.61-33.402-19.505-16.091-34.133-36.084-44.13-59.733s-14.872-50.712-14.872-80.945zM565.35 588.612c10.24-18.53 23.893-33.402 41.204-44.13 20.724-12.922 45.592-19.261 74.118-19.261h134.534q1.712-10.362 1.712-20.724v-305.737c0-37.303-8.533-64.366-25.844-80.945-19.261-18.53-51.444-27.794-97.036-27.794h-346.21c-40.716 0-71.436 8.533-92.404 25.844-21.211 17.554-31.695 45.105-31.695 82.895v498.59c0 37.79 10.484 65.341 31.695 82.895 20.968 17.31 51.688 25.844 92.404 25.844h176.030c8.921 0 17.384-0.558 25.4-1.674v-154.364c0-5.851 0.731-12.678 1.95-20.236 2.682-14.872 7.558-28.526 14.141-41.204zM624.351 762.847l152.337-158.876c0.812-0.812 1.946-2.055 3.262-3.657h-99.279c-14.385 0-25.844 2.682-34.377 8.046-6.095 3.657-10.971 9.021-14.629 15.848-3.17 5.608-5.12 11.947-6.339 18.773-0.731 3.413-0.975 5.608-0.975 7.070v112.796zM473.897 276.399l-128.158 0.095v75.093l128.214-0.095 0.093 119.81h75.093l-0.093-119.867 128.273-0.093v-75.093l-128.329 0.093-0.095-120.773h-75.093l0.095 120.83z" />
<glyph unicode="&#xe906;" glyph-name="FileHarm" d="M347.828 14.928h346.21c65.585 0 115.322 16.335 148.968 48.762 32.67 31.451 49.006 76.556 49.006 135.070v305.737c0 37.059-9.996 73.387-30.232 108.739-6.339 10.971-13.166 21.211-20.48 30.72-4.145 5.12-7.558 9.021-10.484 12.19l-151.162 157.745c-2.194 2.926-5.12 6.339-8.29 9.752-8.046 9.021-17.554 17.067-28.526 24.381-14.629 9.752-30.964 17.554-49.006 23.162-21.455 6.583-44.861 9.996-69.973 9.996h-176.030c-27.794 0-52.907-3.17-75.581-9.752-25.112-7.314-46.568-18.53-64.61-33.402-19.505-16.091-34.133-36.084-44.13-59.733s-14.872-50.712-14.872-80.945v-498.59c0-30.232 4.876-57.295 14.872-80.945s24.625-43.642 44.13-59.733c18.042-14.872 39.497-26.088 64.61-33.402 22.674-6.583 47.787-9.752 75.581-9.752zM549.258 804.416v-154.364c0-5.851 0.731-12.678 1.95-20.236 2.682-14.872 7.558-28.526 14.141-41.204 10.24-18.53 23.893-33.402 41.204-44.13 20.724-12.922 45.592-19.261 74.118-19.261h134.534q1.712-10.362 1.712-20.724v-305.737c0-37.303-8.533-64.366-25.844-80.945-19.261-18.53-51.444-27.794-97.036-27.794h-346.21c-40.716 0-71.436 8.533-92.404 25.844-21.211 17.554-31.695 45.105-31.695 82.895v498.59c0 37.79 10.484 65.341 31.695 82.895 20.968 17.31 51.688 25.844 92.404 25.844h176.030c8.921 0 17.384-0.558 25.4-1.674zM624.351 762.847l152.337-158.876c0.812-0.812 1.946-2.055 3.262-3.657h-99.279c-14.385 0-25.844 2.682-34.377 8.046-6.095 3.657-10.971 9.021-14.629 15.848-3.17 5.608-5.12 11.947-6.339 18.773-0.731 3.413-0.975 5.608-0.975 7.070v112.796zM474.452 511.168h75.093v-229.425h-75.093v229.425zM474.452 235.098l75.093 0.244 0.244-76.556-75.093-0.244-0.244 76.556z" />
<glyph unicode="&#xe907;" glyph-name="FileUpload" d="M207.637 58.082c18.042-14.872 39.497-26.088 64.61-33.402 22.674-6.583 47.787-9.752 75.581-9.752h346.21c65.585 0 115.322 16.335 148.968 48.762 32.67 31.451 49.006 76.556 49.006 135.070v305.737c0 37.059-9.996 73.387-30.232 108.739-6.339 10.971-13.166 21.211-20.48 30.72-3.901 4.876-7.558 9.021-10.484 12.19l-151.162 157.745c-2.194 2.926-5.12 6.339-8.29 9.752-8.046 9.021-17.554 17.067-28.526 24.381-14.629 9.752-30.964 17.554-49.006 23.162-21.455 6.583-44.861 9.996-69.973 9.996h-176.030c-27.794 0-52.907-3.17-75.581-9.752-25.112-7.314-46.568-18.53-64.61-33.402-19.505-16.091-34.133-36.084-44.13-59.733s-14.872-50.712-14.872-80.945v-498.59c0-30.232 4.876-57.295 14.872-80.945s24.625-43.642 44.13-59.733zM606.553 544.482c20.724-12.922 45.592-19.261 74.118-19.261h134.534q1.712-10.362 1.712-20.724v-305.737c0-37.303-8.533-64.366-25.844-80.945-19.261-18.53-51.444-27.794-97.036-27.794h-346.21c-40.716 0-71.436 8.533-92.404 25.844-21.211 17.554-31.695 45.105-31.695 82.895v498.59c0 37.79 10.484 65.341 31.695 82.895 20.968 17.31 51.688 25.844 92.404 25.844h176.030c8.921 0 17.384-0.558 25.4-1.674v-154.364c0-5.851 0.731-12.678 1.95-20.236 2.682-14.872 7.558-28.526 14.141-41.204 10.24-18.53 23.893-33.402 41.204-44.13zM624.351 762.847l152.337-158.876c0.812-0.812 1.946-2.055 3.262-3.657h-99.279c-14.385 0-25.844 2.682-34.377 8.046-6.095 3.657-10.971 9.021-14.629 15.848-3.17 5.608-5.12 11.947-6.339 18.773-0.731 3.413-0.975 5.608-0.975 7.070v112.796zM325.507 321.299l150.918 155.063c5.364 5.12 11.215 8.777 17.798 11.459s13.166 4.145 20.236 4.389c7.314 0 14.385-1.219 21.211-3.901 7.314-2.926 13.653-7.070 19.261-12.678l150.187-154.331-53.882-52.419-100.028 102.717v-216.81h-75.093v213.597l-96.726-99.504-53.882 52.419z" />
<glyph unicode="&#xe908;" glyph-name="FileWarn" d="M272.247 24.68c22.674-6.583 47.787-9.752 75.581-9.752h346.21c65.585 0 115.322 16.335 148.968 48.762 32.67 31.451 49.006 76.556 49.006 135.070v305.737c0 37.059-9.996 73.387-30.232 108.739-6.339 10.971-13.166 21.211-20.48 30.72-4.145 5.12-7.558 9.021-10.484 12.19l-151.162 157.745c-2.194 2.926-5.12 6.339-8.29 9.752-8.046 9.021-17.554 17.067-28.526 24.381-14.629 9.752-30.964 17.554-49.006 23.162-21.455 6.583-44.861 9.996-69.973 9.996h-176.030c-27.794 0-52.907-3.17-75.581-9.752-25.112-7.314-46.568-18.53-64.61-33.402-19.505-16.091-34.133-36.084-44.13-59.733s-14.872-50.712-14.872-80.945v-498.59c0-30.232 4.876-57.295 14.872-80.945s24.625-43.642 44.13-59.733c18.042-14.872 39.497-26.088 64.61-33.402zM625.327 642.981c-0.731 3.413-0.975 5.608-0.975 7.070v112.796l152.337-158.876c0.812-0.812 1.946-2.055 3.262-3.657h-99.279c-14.385 0-25.844 2.682-34.377 8.046-6.095 3.657-10.971 9.021-14.629 15.848-3.17 5.608-5.12 11.947-6.339 18.773zM815.206 525.221q1.712-10.362 1.712-20.724v-305.737c0-37.303-8.533-64.366-25.844-80.945-19.261-18.53-51.444-27.794-97.036-27.794h-346.21c-40.716 0-71.436 8.533-92.404 25.844-21.211 17.554-31.695 45.105-31.695 82.895v498.59c0 37.79 10.484 65.341 31.695 82.895 20.968 17.31 51.688 25.844 92.404 25.844h176.030c8.921 0 17.384-0.558 25.4-1.674v-154.364c0-5.851 0.731-12.678 1.95-20.236 2.682-14.872 7.558-28.526 14.141-41.204 10.24-18.53 23.893-33.402 41.204-44.13 20.724-12.922 45.592-19.261 74.118-19.261h134.534zM564.401 318.424l102.485-102.873-53.15-52.907-102.239 102.627-102.622-103.105-53.15 52.907 102.843 103.326-102.539 102.927 53.15 52.907 102.293-102.678 102.446 102.932 53.15-52.907-102.668-103.156z" />
<glyph unicode="&#xe909;" glyph-name="Note" d="M582.594 36.583c-7.802-2.194-15.36-3.657-23.162-4.389-4.145-0.488-7.802-0.731-10.971-0.731h-154.088c-27.794 0-52.907 3.17-75.581 9.752-25.112 7.314-46.568 18.53-64.61 33.402-19.505 16.091-34.133 36.084-44.13 59.733s-14.872 50.712-14.872 80.945v465.432c0 30.232 4.876 57.295 14.872 80.945s24.625 43.642 44.13 59.733c18.042 14.872 39.497 26.088 64.61 33.402 22.674 6.583 47.787 9.752 75.581 9.752h236.495c65.585 0 115.322-16.335 148.968-48.762 32.67-31.451 49.006-76.556 49.006-135.070v-379.855c0-9.509-1.463-19.992-4.632-31.695-5.851-23.162-16.579-43.154-32.183-59.49l-0.975-1.219-147.505-135.802c-15.848-17.31-36.328-29.257-60.952-36.084zM654.866 302.688h98.882v378.039c0 37.303-8.533 64.366-25.844 80.945-19.261 18.53-51.444 27.794-97.036 27.794h-236.495c-40.716 0-71.436-8.533-92.404-25.844-21.211-17.554-31.695-45.105-31.695-82.895v-465.432c0-37.79 10.484-65.341 31.695-82.895 20.968-17.31 51.688-25.844 92.404-25.844h154.051l-0.346 93.489c0 5.364 0.731 10.971 1.707 17.067 2.194 12.19 6.095 23.162 11.703 33.402 8.046 15.36 19.261 27.307 33.646 36.328 16.82 10.484 36.815 15.848 59.733 15.848zM329.143 629.882v75.093h345.721v-75.093h-345.721zM329.143 486.921v75.093h246.003v-75.093h-246.003zM700.942 227.595h-46.075c-8.533 0-15.116-1.463-19.992-4.389-2.926-1.95-5.364-4.632-7.314-8.29-1.707-3.17-3.17-7.070-3.901-11.215-0.234-1.399-0.468-2.575-0.488-3.528l0.163-44.056 77.607 71.478zM623.171 200.174v0z" />
<glyph unicode="&#xe90a;" glyph-name="Time" d="M129.773 609.579c20.968 49.493 50.469 93.623 88.747 131.901s82.408 67.779 131.901 88.747c51.444 21.699 105.326 32.67 161.646 32.67s109.958-10.971 161.402-32.67c49.737-20.968 93.623-50.712 131.901-88.99s67.779-82.164 88.747-131.657c21.699-51.444 32.67-105.326 32.67-161.646s-10.971-109.958-32.67-161.402c-20.968-49.737-50.469-93.623-88.747-131.901s-82.164-67.779-131.901-88.747c-51.444-21.699-105.082-32.67-161.402-32.67s-110.202 10.971-161.646 32.67c-49.493 20.968-93.379 50.469-131.657 88.747s-68.023 82.164-88.99 131.901c-21.699 51.444-32.67 105.082-32.67 161.402s10.971 110.202 32.67 161.646zM644.211 134.882c40.716 17.31 76.556 41.691 108.008 72.899 31.208 31.451 55.589 67.291 72.899 108.008 17.798 41.935 26.575 86.065 26.575 132.145s-8.777 90.21-26.575 132.389c-17.31 40.472-41.691 76.556-72.899 108.008-31.451 31.208-67.291 55.589-108.008 72.899-41.935 17.798-86.065 26.575-132.145 26.575s-90.21-8.777-132.389-26.575c-40.472-17.31-76.556-41.691-108.008-72.899-31.208-31.451-55.589-67.535-72.899-108.008-17.798-42.179-26.575-86.309-26.575-132.389s8.777-90.21 26.575-132.145c17.31-40.716 41.691-76.556 72.899-108.008 31.451-31.208 67.535-55.589 108.008-72.899 42.179-17.798 86.309-26.575 132.389-26.575s90.21 8.777 132.145 26.575zM473.788 424.284l0.244 313.051h75.093l-0.244-302.811h183.589v-75.093h-194.316c-8.29 0-16.579 1.463-24.137 4.632-7.802 3.17-14.629 7.558-20.724 13.41-6.095 6.095-10.971 13.166-14.385 20.968-3.413 8.29-5.12 16.823-5.12 25.844z" />
<glyph unicode="&#xe90b;" glyph-name="TimeLine" d="M683.908 792.968v-98.011c0-10.24 1.707-19.749 5.364-28.526 4.145-9.509 9.996-17.554 17.798-23.893 12.678-10.728 29.013-16.091 48.518-16.091h91.672c21.943 0 39.253 6.095 52.175 18.53 12.922 12.678 19.261 29.257 19.261 49.981v98.011c0 20.724-6.583 37.303-19.505 49.737-12.678 12.434-29.989 18.53-51.931 18.53h-91.672c-19.505 0-35.596-5.364-48.518-15.848-7.802-6.339-13.653-14.385-17.798-23.893-3.657-8.777-5.364-18.286-5.364-28.526zM326.505 846.961v-144.947c-20.866-3.198-41.137-8.976-60.753-17.275-30.72-12.922-58.027-31.451-81.676-55.101s-42.179-50.956-55.101-81.676c-13.41-31.695-20.236-65.097-20.236-99.962s6.827-68.267 20.236-99.962c12.922-30.72 31.451-58.027 55.101-81.676s50.956-42.179 81.676-55.101c19.616-8.299 39.887-14.078 60.753-17.276v-145.013h75.093v144.528c22.040 3.079 43.42 9.023 64.078 17.762 30.72 12.922 58.027 31.451 81.676 55.101s42.179 50.956 55.101 81.676c13.41 31.695 20.236 65.097 20.236 99.962s-6.827 68.267-20.236 99.962c-12.922 30.72-31.451 58.027-55.101 81.676s-50.956 42.179-81.676 55.101c-20.658 8.739-42.038 14.683-64.078 17.762v144.459h-75.093zM759.001 701.54v84.602h84.602v-84.602h-84.602zM183.832 448c0 24.625 4.876 48.274 14.385 70.705 9.021 21.943 22.187 41.204 39.010 57.783 16.579 16.823 35.84 29.989 57.783 39.010 22.43 9.509 46.080 14.385 70.705 14.385s48.274-4.876 70.705-14.385c21.943-9.021 41.204-22.187 57.783-39.010 16.823-16.579 29.989-35.84 39.010-57.783 9.509-22.43 14.385-46.080 14.385-70.705s-4.876-48.274-14.385-70.705c-9.021-21.943-22.187-41.204-39.010-57.783-16.579-16.823-35.84-29.989-57.783-39.010-22.43-9.509-46.080-14.385-70.705-14.385s-48.274 4.876-70.705 14.385c-21.943 9.021-41.204 22.187-57.783 39.010-16.823 16.579-29.989 35.84-39.010 57.783-9.509 22.43-14.385 46.080-14.385 70.705zM344.015 395.825c4.876-4.876 10.728-8.533 17.067-11.215 6.583-2.438 13.166-3.657 19.992-3.657l73.387-0.244 0.488 75.093-51.931 0.244v127.269h-75.093v-148.968c0-7.314 1.219-14.385 4.145-21.211 2.682-6.583 6.583-12.434 11.947-17.31zM683.908 399.060c0-10.24 1.707-19.749 5.364-28.526 4.145-9.509 9.996-17.554 17.798-23.893 12.678-10.728 29.013-16.091 48.518-16.091h91.672c21.943 0 39.253 6.095 52.175 18.53 12.922 12.678 19.261 29.257 19.261 49.981v98.011c0 20.724-6.583 37.303-19.505 49.737-12.678 12.434-29.989 18.53-51.931 18.53h-91.672c-19.505 0-35.596-5.364-48.518-15.848-7.802-6.339-13.653-14.385-17.798-23.893-3.657-8.777-5.364-18.286-5.364-28.526v-98.011zM759.001 405.643v84.602h84.602v-84.602h-84.602zM755.588 31.329c-19.505 0-35.84 5.364-48.518 16.091-7.802 6.339-13.653 14.385-17.798 23.893-3.657 8.777-5.364 18.286-5.364 28.526v98.011c0 10.24 1.707 19.749 5.364 28.526 4.145 9.509 9.996 17.554 17.798 23.893 12.922 10.484 29.013 15.848 48.518 15.848h91.672c21.943 0 39.253-6.095 51.931-18.53 12.922-12.434 19.505-29.013 19.505-49.737v-98.011c0-20.724-6.339-37.303-19.261-49.981-12.922-12.434-30.232-18.53-52.175-18.53h-91.672zM843.603 106.423v84.602h-84.602v-84.602h84.602z" />
<glyph unicode="&#xe90c;" glyph-name="Pay" d="M928.537 215.295c0-58.514-16.335-103.619-48.762-135.070-33.646-32.427-83.383-48.762-148.968-48.762h-436.175c-27.794 0-52.907 3.17-75.581 9.752-25.112 7.314-46.568 18.53-64.61 33.402-19.505 16.091-34.133 36.084-44.13 59.733s-14.872 50.712-14.872 80.945v465.432c0 30.232 4.876 57.295 14.872 80.945s24.625 43.642 44.13 59.733c18.042 14.872 39.497 26.088 64.61 33.402 22.674 6.583 47.787 9.752 75.581 9.752h436.175c65.585 0 115.322-16.335 148.968-48.762 32.427-31.451 48.762-76.556 48.762-135.070v-465.432zM202.229 132.4c20.968-17.31 51.688-25.844 92.404-25.844h436.175c45.349 0 77.531 9.265 96.792 27.794 17.31 16.579 25.844 43.642 25.844 80.945v465.432c0 37.303-8.533 64.366-25.844 80.945-19.261 18.53-51.444 27.794-96.792 27.794h-436.175c-40.716 0-71.436-8.533-92.404-25.844-21.211-17.554-31.695-45.105-31.695-82.895v-465.432c0-37.79 10.484-65.341 31.695-82.895zM598.441 589.63c17.067 16.823 25.6 43.887 25.6 81.19v61.44h75.093v-61.44c0-58.515-16.091-103.62-48.518-135.071-33.402-32.427-82.651-48.762-147.992-48.762-27.55 0-52.419 3.17-75.093 9.752-24.869 7.314-46.324 18.53-64.122 33.402-19.261 16.091-33.889 36.084-43.885 59.977-9.752 23.65-14.629 50.47-14.629 80.702v61.44h75.093v-61.44c0-37.79 10.484-65.342 31.451-82.896 20.48-17.31 50.956-25.844 91.185-25.844 44.861 0 76.8 9.265 95.817 27.55zM504.219 199.279c-8.777-3.413-18.042-5.12-27.55-4.876-9.021 0.244-17.554 1.95-25.844 5.364-8.29 3.17-15.604 7.802-22.187 13.653l-1.219 0.975-98.988 104.838 54.615 51.688 94.354-100.206 170.423 186.027 55.589-50.712-174.324-190.172c-7.314-7.314-15.604-12.922-24.869-16.579z" />
<glyph unicode="&#xe90d;" glyph-name="Shopping" d="M911.338 572.631c3.657 14.872 4.632 30.232 3.413 46.080-1.463 19.017-6.339 36.328-14.385 52.175q-14.994 29.623-43.154 46.080c-20.48 11.947-44.617 18.042-72.655 18.042h-552.716l-15.604 47.543c-4.876 14.629-13.41 26.331-25.844 35.352-12.19 9.021-26.088 13.41-41.448 13.41h-65.829v-75.093h62.903l22.674-69.73 86.065-297.691c3.901-13.897 9.752-26.819 18.042-38.522 7.802-11.703 17.554-21.699 28.77-30.232s23.406-15.116 36.815-19.505c13.653-4.632 27.794-7.070 42.179-7.070h357.669c14.872 0 29.257 2.438 43.154 7.314 13.653 4.876 26.088 11.703 37.547 20.48 11.215 8.777 20.968 19.261 28.77 31.451 8.046 12.19 13.897 25.6 17.554 39.985l46.080 179.931zM838.683 591.161l-46.324-180.419c-3.17-12.434-9.752-22.43-19.749-30.232-10.24-8.046-21.455-11.947-34.377-11.947h-357.669c-12.434 0-23.65 3.657-33.646 11.215s-16.579 17.31-19.992 29.257v0.488l-72.411 250.392h530.042c14.385 0 25.844-2.438 34.377-7.558 6.339-3.657 11.215-9.021 14.629-15.848s5.608-14.629 6.339-23.893c0.731-8.046 0.244-15.116-1.219-21.455zM193.806 157.18c0-12.922 2.438-25.356 7.558-37.303 4.876-11.459 11.703-21.699 20.48-30.476s19.017-15.604 30.476-20.48c11.947-5.12 24.381-7.558 37.303-7.558s25.356 2.438 37.303 7.558c11.459 4.876 21.455 11.703 30.232 20.48s15.604 19.017 20.48 30.476c5.12 11.947 7.558 24.381 7.558 37.303s-2.438 25.356-7.558 37.303c-4.876 11.215-11.703 21.455-20.48 30.232s-19.017 15.604-30.232 20.48c-11.947 5.12-24.381 7.558-37.303 7.558s-25.356-2.438-37.303-7.558c-11.459-4.876-21.699-11.703-30.476-20.48s-15.604-18.773-20.48-30.232c-5.12-11.947-7.558-24.381-7.558-37.303zM761.639 245.195c-11.459-4.876-21.699-11.703-30.476-20.48s-15.604-18.773-20.48-30.232c-5.12-11.947-7.558-24.381-7.558-37.303s2.438-25.356 7.558-37.303c4.876-11.459 11.703-21.699 20.48-30.476s19.017-15.604 30.476-20.48c11.947-5.12 24.381-7.558 37.303-7.558s25.356 2.438 37.303 7.558c11.459 4.876 21.455 11.703 30.232 20.48 9.021 8.777 15.848 19.017 20.724 30.476 5.12 11.947 7.558 24.381 7.558 37.303s-2.438 25.356-7.558 37.303c-4.876 11.459-11.947 21.455-20.724 30.232s-19.017 15.604-30.232 20.48c-11.947 5.12-24.381 7.558-37.303 7.558s-25.356-2.438-37.303-7.558zM274.995 142.551c-4.145 3.901-6.095 9.021-6.095 14.629s1.95 10.484 6.095 14.385c3.901 4.145 8.777 6.095 14.629 6.095 5.608 0 10.484-1.95 14.385-6.095 4.145-3.901 6.095-8.777 6.095-14.385 0-5.851-1.95-10.728-6.095-14.629-3.901-4.145-8.777-6.095-14.385-6.095s-10.728 1.95-14.629 6.095zM778.218 157.18c0 5.608 1.95 10.484 6.095 14.385 3.901 4.145 8.777 6.095 14.629 6.095 5.608 0 10.484-1.95 14.629-6.095s6.095-8.777 6.095-14.385c0-5.608-1.95-10.484-6.095-14.629s-9.021-6.095-14.629-6.095c-5.608 0-10.728 1.95-14.629 6.095-4.145 3.901-6.095 9.021-6.095 14.629z" />
<glyph unicode="&#xe90e;" glyph-name="Talk" d="M110.313 214.253c-9.996 23.65-14.872 50.469-14.872 80.701v342.552c0 30.232 4.876 57.295 14.872 80.945s24.625 43.642 44.13 59.733c18.042 14.872 39.497 26.088 64.61 33.402 22.674 6.583 47.787 9.752 75.581 9.752h436.175c65.585 0 115.322-16.335 148.968-48.762 32.427-31.451 48.762-76.556 48.762-135.070v-342.552c0-58.514-16.335-103.375-48.762-135.070-33.89-32.427-83.383-48.762-148.968-48.762h-92.16l-64.853-64.122c-8.533-8.29-18.042-14.385-28.77-18.773-10.484-4.389-21.455-6.827-32.914-6.827s-22.43 2.438-33.158 6.827c-10.484 4.389-19.992 10.971-28.526 19.261l-63.634 63.634h-92.16c-27.794 0-52.907 3.17-75.581 9.752-25.112 7.314-46.568 18.53-64.61 33.402-19.505 16.091-34.133 36.084-44.13 59.977zM853.444 294.954v342.552c0 37.303-8.533 64.366-25.844 80.945-19.261 18.53-51.444 27.794-96.792 27.794h-436.175c-40.716 0-71.436-8.533-92.404-25.844-21.211-17.554-31.695-45.105-31.695-82.895v-342.552c0-37.547 10.484-65.341 31.695-82.895 20.968-17.31 51.688-25.844 92.404-25.844h123.368l85.577-85.577c2.682-2.682 5.364-4.145 8.533-4.145s6.339 1.707 9.509 4.632l86.309 85.090h122.88c45.349 0 77.531 9.265 96.792 27.794 17.31 16.579 25.844 43.642 25.844 80.945z" />
<glyph unicode="&#xe90f;" glyph-name="Add" d="M474.586 485.437l0.11 338.264h75.093l-0.11-338.286 358.81-0.11v-75.093l-358.834 0.11-0.11-341.211h-75.093l0.11 341.233-358.21 0.112v75.093l358.234-0.112z" />
<glyph unicode="&#xe910;" glyph-name="Code" d="M118.864 492.505l-0.731-0.731c-11.947-14.141-18.042-29.501-17.798-46.324s6.583-32.183 19.261-46.324l210.895-218.21 53.882 52.175-206.019 213.090 205.531 216.99-54.613 51.688-210.408-222.354zM921.972 445.449c0.244 16.823-5.851 32.183-17.798 46.324l-0.731 0.975-210.651 219.185-54.126-52.175 205.288-213.577-206.019-213.090 53.882-52.175 210.896 218.21c12.678 14.141 19.017 29.501 19.261 46.324zM434.597 315.011l-52.175 53.882 217.234 209.92 52.175-53.882-217.234-209.92z" />
<glyph unicode="&#xe911;" glyph-name="Download" d="M474.453 813.714h75.093v-516.467l170.555 176.213 53.882-52.175-214.309-221.379c-6.095-6.583-13.166-11.459-21.455-14.872-8.046-3.413-16.335-4.876-24.866-4.632-8.048 0.244-16.093 1.95-23.651 5.12s-14.385 7.802-20.236 13.653l-214.796 222.11 53.882 52.175 165.902-171.405v511.659zM768 44.739v75.093h-512v-75.093h512z" />
<glyph unicode="&#xe912;" glyph-name="Exported" d="M513.272 821.333c8.777 0.244 17.067-1.219 24.869-4.632 8.29-3.413 15.36-8.29 21.699-14.872l214.065-221.379-53.882-52.176-170.476 176.133v-529.715h-75.093v525.071l-165.981-171.488-53.882 52.176 215.040 222.11c5.851 5.851 12.434 10.484 20.236 13.653 7.558 3.169 15.36 4.876 23.406 5.12zM768 44.74v75.093h-512v-75.093h512z" />
<glyph unicode="&#xe913;" glyph-name="Favourite" d="M779.96 123.091c6.339 16.335 8.29 32.914 6.095 50.469l-20.724 154.088c-0.488 3.413-0.244 7.070 0.731 10.728 1.219 3.413 2.682 6.339 4.876 8.777l102.4 111.177c11.703 12.922 19.505 28.038 23.162 45.349 3.901 17.067 3.17 34.133-1.707 50.956-5.608 17.067-14.629 31.451-27.55 43.154-12.922 12.19-28.038 19.749-45.349 22.918l-144.823 26.575c-2.682 0.244-4.876 1.463-7.314 3.17-2.438 1.95-4.389 4.389-5.851 7.314l-68.51 137.752c-8.046 15.848-19.261 28.526-33.89 38.034-15.116 9.509-31.451 14.385-49.25 14.385s-34.133-4.876-49.25-14.385c-14.629-9.509-26.088-22.187-34.133-38.034l-68.51-137.509c-1.463-3.17-3.413-5.608-5.851-7.558-2.194-1.707-4.632-2.926-7.314-3.413l-144.335-26.088c-17.554-3.413-32.914-10.971-45.836-23.162-12.922-11.703-21.943-26.088-27.307-42.91-5.12-17.067-5.851-34.133-1.95-51.2 3.657-17.31 11.459-32.427 23.162-45.349l102.644-111.421c1.95-2.438 3.657-5.12 4.632-8.533 0.975-3.657 1.463-7.314 0.975-10.728l-20.724-154.088c-2.438-17.554-0.488-34.133 6.095-50.469 6.339-16.335 16.579-29.989 30.232-40.716 14.385-11.215 30.476-17.31 48.030-19.017 17.554-1.463 34.377 1.95 50.225 9.996l131.657 68.51c4.876 2.682 9.752 2.682 14.629 0.244l131.901-68.754c15.848-8.046 32.67-11.459 50.225-9.996 17.554 1.707 33.646 7.802 47.787 18.773q20.846 16.457 30.72 40.96zM528.105 761.872l68.51-137.265c6.583-13.41 15.604-24.625 27.307-33.646 11.947-9.021 25.112-14.872 39.741-17.798l144.091-26.088c3.413-0.731 6.339-2.194 9.021-4.632 2.682-2.682 4.876-5.851 6.095-9.752 1.219-4.145 1.463-8.533 0.488-12.922-0.975-4.145-2.926-7.802-5.364-10.728l-102.644-111.665c-9.752-10.728-16.823-23.162-20.968-37.303-4.389-13.897-5.364-28.038-3.657-42.667l20.724-154.088h0.244c0.488-4.389 0-8.533-1.707-12.434-1.463-3.901-3.657-7.070-6.583-9.265-2.438-1.95-5.364-3.17-8.533-3.413s-6.095 0.244-9.021 1.95l-131.413 68.267c-13.166 7.070-27.307 10.484-42.179 10.484-15.116 0-29.013-3.413-42.179-10.24l-131.657-68.51c-2.926-1.707-5.851-2.194-9.021-1.95s-5.851 1.463-8.29 3.17c-2.926 2.438-5.364 5.608-6.827 9.509q-2.56 5.851-1.463 12.434l20.724 154.088c1.95 14.629 0.731 28.77-3.413 42.667-4.389 14.141-11.459 26.819-21.211 37.547l-102.4 111.177c-2.682 3.17-4.389 6.827-5.364 10.971-0.975 4.389-0.975 8.777 0.244 12.678s3.413 7.314 6.339 9.996c2.438 2.438 5.364 3.901 8.533 4.389l144.579 26.575c14.629 2.682 27.794 8.533 39.497 17.554s20.724 20.236 27.307 33.402l68.51 137.509c1.707 3.657 4.145 6.339 7.314 8.29 2.682 1.707 5.608 2.682 8.777 2.682s5.851-0.975 8.533-2.682c3.17-1.95 5.608-4.632 7.314-8.29z" />
<glyph unicode="&#xe914;" glyph-name="FavouriteList" d="M415.576 788.868l-68.51-137.509c-1.463-3.17-3.413-5.608-5.851-7.558-2.194-1.707-4.632-2.926-7.314-3.413l-144.335-26.088c-17.554-3.413-32.914-10.971-45.836-23.162-12.922-11.703-21.943-26.088-27.307-42.91-5.12-17.067-5.851-34.133-1.95-51.2 3.657-17.31 11.459-32.427 23.162-45.349l102.644-111.421c2.194-2.438 3.657-5.364 4.632-8.777 1.219-3.413 1.463-6.827 0.975-10.484l-20.724-154.088c-2.438-17.554-0.488-34.133 6.095-50.469 6.339-16.335 16.579-29.989 30.232-40.716 14.385-11.215 30.476-17.31 48.030-19.017 17.554-1.463 34.377 1.95 50.225 9.996l131.657 68.51c2.438 1.219 4.876 1.95 7.558 1.95v75.093c-15.116 0-29.257-3.413-42.179-10.24l-131.657-68.51c-2.926-1.707-5.851-2.194-9.021-1.95s-5.851 1.463-8.29 3.17c-2.926 2.438-5.364 5.608-6.827 9.509q-2.56 5.851-1.463 12.434l20.48 153.6c2.194 14.629 1.219 29.013-3.17 43.154s-11.459 26.819-21.211 37.547l-102.4 111.177c-2.682 3.17-4.389 6.827-5.364 10.971-0.975 4.389-0.975 8.777 0.244 12.678s3.413 7.314 6.339 9.996c2.438 2.438 5.364 3.901 8.533 4.389l144.579 26.575q21.943 4.023 39.497 17.554c11.703 9.021 20.724 20.236 27.307 33.402l68.51 137.509c1.707 3.657 4.145 6.339 7.314 8.29 2.682 1.707 5.608 2.682 8.777 2.682s5.851-0.975 8.533-2.682c3.17-1.95 5.608-4.632 7.314-8.29l68.51-137.265c6.583-13.41 15.604-24.625 27.307-33.646 11.947-9.021 25.112-14.872 39.741-17.798l144.091-26.088c3.413-0.731 6.339-2.194 9.021-4.632 2.682-2.682 4.876-5.851 6.095-9.752 1.219-4.145 1.463-8.533 0.488-12.922-0.731-3.413-2.194-6.339-3.901-8.777-2.926-2.438-6.339-5.12-9.996-8.046-10.728-8.777-20.968-18.042-30.964-27.307-32.914-31.208-55.832-59.977-68.754-86.552-4.876-9.996-8.533-18.286-10.728-25.356-3.413-10.484-5.12-21.211-5.12-32.183h75.093c0 2.926 0.488 6.095 1.463 9.265 1.219 3.17 3.413 8.29 6.583 14.629 9.021 18.773 26.819 40.716 53.15 65.585 8.533 8.29 17.554 16.091 27.063 23.893 4.632 3.901 8.29 6.827 10.971 8.777l2.682 2.194 2.438 2.438c11.703 12.922 19.505 28.038 23.162 45.349 3.901 17.067 3.17 34.133-1.707 50.956-5.608 17.067-14.629 31.451-27.55 43.154-12.922 12.19-28.038 19.749-45.349 22.918l-144.823 26.575c-2.682 0.244-4.876 1.463-7.314 3.17-2.438 1.95-4.389 4.389-5.851 7.314l-68.51 137.752c-8.046 15.848-19.261 28.526-33.89 38.034-15.116 9.509-31.451 14.385-49.25 14.385s-34.133-4.876-49.25-14.385c-14.629-9.509-26.088-22.187-34.133-38.034zM571.845 191.025v75.093h295.985v-75.093h-295.985zM791.274 64.688v75.093h-219.429v-75.093h219.429z" />
<glyph unicode="&#xe915;" glyph-name="Markdown" d="M92.116 614.234c0 30.232 4.876 57.051 14.629 80.701q14.994 35.84 43.886 59.977c17.798 14.872 39.253 26.088 64.122 33.402 22.674 6.583 47.543 9.752 75.093 9.752h445.684c65.097 0 114.59-16.335 147.992-48.762 32.183-31.451 48.274-76.556 48.274-135.070v-332.556c0-58.514-16.091-103.375-48.274-134.827-33.646-32.67-82.895-49.006-147.992-49.006h-445.684c-27.55 0-52.419 3.413-75.093 9.996-24.869 7.070-46.324 18.286-64.122 33.402-19.261 16.091-33.89 35.84-43.886 59.733-9.752 23.65-14.629 50.469-14.629 80.701v332.556zM831.102 200.489q25.6 25.234 25.6 81.189v332.556q0 55.954-25.6 81.189c-19.017 18.286-50.712 27.55-95.573 27.55h-445.684c-40.229 0-70.705-8.533-91.185-25.844-20.968-17.554-31.451-45.105-31.451-82.895v-332.556c0-37.79 10.484-65.341 31.451-82.895 20.724-17.31 50.956-25.844 91.185-25.844h445.684c44.861 0 76.556 9.265 95.573 27.55zM218.409 238.523h75.093v264.777l51.2-71.192h42.179l47.543 68.023v-261.608h75.093v416.67h-58.514l-85.821-122.88-88.259 122.88h-58.514v-416.67zM721.388 257.54c-6.339-5.364-13.41-9.509-21.455-12.19-7.070-2.438-14.629-3.657-22.187-3.657-7.802 0-15.116 1.219-22.43 3.657-7.802 2.682-15.116 6.583-21.211 11.947-0.975 0.731-1.707 1.707-2.682 2.438l-109.47 113.615 54.126 52.175 62.171-64.61v286.476h75.093v-289.89l65.829 68.023 54.126-52.175-111.908-115.809z" />
<glyph unicode="&#xe916;" glyph-name="More" d="M218.454 484.447l75.093 0.244 0.244-76.556-75.093-0.244-0.244 76.556zM474.695 407.891l75.093 0.244-0.244 76.556-75.093-0.244 0.244-76.556zM730.454 484.447l75.093 0.244 0.244-76.556-75.093-0.244-0.244 76.556z" />
<glyph unicode="&#xe917;" glyph-name="Search" d="M196.887 762.448c-25.844-25.844-45.836-55.345-60.221-88.99-14.629-34.621-21.943-70.949-21.943-108.983s7.314-74.362 21.943-109.227c14.385-33.402 34.377-63.147 60.221-88.99s55.345-45.836 88.99-60.221c34.621-14.629 70.949-21.943 108.983-21.943s74.362 7.314 109.227 21.943c19.588 8.436 37.92 18.8 54.945 31.144l287.856-287.856 53.15 53.15-286.525 286.525c16.216 20.134 29.447 42.247 39.785 66.248 14.629 34.865 21.943 71.192 21.943 109.227s-7.314 74.362-21.943 108.983c-14.385 33.646-34.377 63.147-60.221 88.99s-55.589 45.836-88.99 60.221c-34.865 14.629-71.192 21.943-109.227 21.943s-74.362-7.314-108.983-21.943c-33.646-14.385-63.147-34.377-88.99-60.221zM584.057 484.505c-10.484-24.381-25.112-46.324-44.13-65.097-18.773-19.017-40.716-33.646-65.097-44.13-25.6-10.728-52.175-16.091-79.97-16.091q-41.691 0-79.726 16.091c-24.625 10.484-46.324 25.112-65.097 44.13-19.017 18.773-33.646 40.716-44.13 65.097-10.728 25.6-16.091 52.175-16.091 79.97q0 41.691 16.091 79.726c10.484 24.625 25.112 46.324 44.13 65.097 18.773 19.017 40.472 33.646 65.097 44.13q38.034 16.091 79.726 16.091c27.794 0 54.37-5.364 79.97-16.091 24.381-10.484 46.324-25.112 65.097-44.13 19.017-18.773 33.646-40.472 44.13-65.097 10.728-25.356 16.091-51.931 16.091-79.726s-5.364-54.37-16.091-79.97z" />
<glyph unicode="&#xe918;" glyph-name="Share" d="M877.376 530.543c3.413 7.802 4.876 16.091 4.632 24.869-0.244 8.046-1.95 15.848-5.12 23.406-3.17 7.802-7.802 14.385-13.653 20.236l-222.11 215.040-52.175-53.882 173.858-168.275h-340.463c-11.703 0-25.844-1.463-42.667-4.145-32.67-5.364-62.903-15.116-90.453-28.77-39.985-19.992-71.436-47.299-94.598-81.92-28.526-42.667-42.667-94.354-42.667-155.307v-226.255h75.093v226.255c0 81.432 31.939 137.996 95.573 169.935 20.968 10.484 44.13 17.798 69.486 21.943 8.046 1.463 15.604 2.194 22.918 2.926 3.413 0.244 5.851 0.244 7.314 0.244h340.365l-173.761-168.182 52.175-53.882 221.379 214.065c6.583 6.339 11.459 13.41 14.872 21.699zM801.225 554.753l0.327-0.317-0.327-0.317v0.634z" />
<glyph unicode="&#xe919;" glyph-name="Alert" d="M673.468 65.884c-51.2-21.699-105.082-32.67-161.402-32.67s-110.202 10.971-161.646 32.67c-49.493 20.968-93.379 50.469-131.657 88.747s-68.023 82.164-88.99 131.901c-21.699 51.2-32.67 105.082-32.67 161.402s10.971 110.202 32.67 161.646c20.968 49.493 50.469 93.623 88.747 131.901s82.408 67.779 131.901 88.747c51.444 21.699 105.326 32.67 161.646 32.67s110.202-10.971 161.402-32.67c49.737-20.968 93.623-50.712 131.901-88.99s67.779-82.164 88.747-131.657c21.699-51.444 32.67-105.326 32.67-161.646s-10.971-110.202-32.67-161.402c-20.968-49.737-50.469-93.623-88.747-131.901s-82.164-67.779-131.901-88.747zM379.678 134.882c42.179-17.798 86.309-26.575 132.389-26.575s90.21 8.777 132.145 26.575c40.716 17.31 76.8 41.448 108.008 72.899 31.451 31.208 55.589 67.291 72.899 108.008 17.798 41.935 26.575 86.065 26.575 132.145s-8.777 90.21-26.575 132.389c-17.31 40.472-41.448 76.556-72.899 108.008-31.208 31.208-67.291 55.589-108.008 72.899-41.935 17.798-86.065 26.575-132.145 26.575s-90.21-8.777-132.389-26.575c-40.472-17.31-76.556-41.691-108.008-72.899-31.208-31.451-55.589-67.535-72.899-108.008-17.798-42.179-26.575-86.309-26.575-132.389s8.777-90.21 26.575-132.145c17.31-40.716 41.691-76.8 72.899-108.008 31.451-31.451 67.535-55.589 108.008-72.899zM474.454 710.674h75.093l0.244-365.714h-75.093l-0.244 365.714zM474.698 195.113l75.093 0.244-0.244 76.556-75.093-0.244 0.244-76.556z" />
<glyph unicode="&#xe91a;" glyph-name="BeAlert" d="M834.547 34.846h-636.587c-18.286 0-34.865 4.145-49.737 11.947-14.872 8.046-26.819 18.773-35.596 32.67-8.533 13.897-13.166 29.013-13.897 45.349-0.488 16.579 3.17 32.427 10.971 47.055l330.85 647.314c7.314 15.116 17.554 26.819 30.72 35.596 13.41 8.777 28.038 13.166 43.642 13.166s30.232-4.389 43.642-12.922c13.41-8.777 23.893-20.48 31.695-35.596l328.655-649.509c8.533-14.385 12.922-29.745 13.166-45.836 0-16.335-4.389-31.695-13.166-45.592-8.533-13.653-20.48-24.381-35.352-32.183-14.629-7.558-30.964-11.459-49.006-11.459zM507.599 785.292l-331.093-647.558c-3.413-6.827-3.657-12.678-0.244-18.042 1.707-2.682 4.145-4.876 7.070-6.583 4.145-1.95 9.021-3.17 14.629-3.17h636.587c5.851 0 10.728 0.975 14.629 3.17 2.682 1.463 4.876 3.17 6.095 5.364 2.438 3.901 2.194 8.29-0.975 13.41-0.731 0.975-1.219 1.95-1.707 2.926l-329.387 650.728c-1.463 2.926-3.413 5.12-5.364 6.339-0.975 0.731-1.95 0.975-2.926 0.975-2.438 0-4.632-2.194-6.827-6.583 0-0.244-0.244-0.731-0.488-0.975zM474.453 590.961h75.093v-262.583h-75.093v262.583zM474.453 281.642l75.093 0.244 0.244-76.556-75.093-0.244-0.244 76.556z" />
<glyph unicode="&#xe91b;" glyph-name="Check" d="M348.807 160.428c9.509-3.901 19.261-6.095 29.501-6.095 10.728 0 20.724 1.95 30.476 6.095 10.24 4.145 19.261 10.24 27.063 18.286l482.255 503.71-54.126 51.931-482.011-503.223c-0.975-1.219-1.95-1.707-2.926-1.707s-1.707 0.244-1.95 0.488l-216.99 224.792-54.126-51.931 216.99-224.792c7.558-7.802 16.335-13.653 25.844-17.554z" />
<glyph unicode="&#xe91c;" glyph-name="CloseOrFalse" d="M512.542 396.242l-303.138-304.372-53.15 52.907 303.377 304.611-302.638 303.985 53.15 52.907 302.409-303.754 303.206 304.438 53.15-52.907-303.445-304.679 302.721-304.067-53.15-52.907-302.492 303.838z" />
<glyph unicode="&#xe91d;" glyph-name="Info" d="M805.369 154.631c-38.278-38.278-82.164-67.779-131.901-88.747-51.2-21.699-105.082-32.67-161.402-32.67s-110.202 10.971-161.646 32.67c-49.493 20.968-93.379 50.469-131.657 88.747s-68.023 82.164-88.99 131.901c-21.699 51.2-32.67 105.082-32.67 161.402s10.971 110.202 32.67 161.646c20.968 49.493 50.469 93.623 88.747 131.901s82.408 67.779 131.901 88.747c51.444 21.699 105.326 32.67 161.646 32.67s110.202-10.971 161.402-32.67c49.737-20.968 93.623-50.712 131.901-88.99s67.779-82.164 88.747-131.657c21.699-51.444 32.67-105.326 32.67-161.646s-10.971-110.202-32.67-161.402c-20.968-49.737-50.469-93.623-88.747-131.901zM644.211 761.229c-41.935 17.798-86.065 26.575-132.145 26.575s-90.21-8.777-132.389-26.575c-40.472-17.31-76.556-41.691-108.008-72.899-31.208-31.451-55.589-67.535-72.899-108.008-17.798-42.179-26.575-86.309-26.575-132.389s8.777-90.21 26.575-132.145c17.31-40.716 41.691-76.8 72.899-108.008 31.451-31.451 67.535-55.589 108.008-72.899 42.179-17.798 86.309-26.575 132.389-26.575s90.21 8.777 132.145 26.575c40.716 17.31 76.8 41.448 108.008 72.899 31.451 31.208 55.589 67.291 72.899 108.008 17.798 41.935 26.575 86.065 26.575 132.145s-8.777 90.21-26.575 132.389c-17.31 40.472-41.448 76.556-72.899 108.008-31.208 31.208-67.291 55.589-108.008 72.899zM474.698 610.696l75.093 0.244-0.244 76.556-75.093-0.244 0.244-76.556zM474.454 541.115h75.093l0.244-365.714h-75.093l-0.244 365.714z" />
<glyph unicode="&#xe91e;" glyph-name="Right" d="M129.773 609.579c-21.699-51.444-32.67-105.326-32.67-161.646s10.971-110.202 32.67-161.402c20.968-49.737 50.712-93.623 88.99-131.901s82.164-67.779 131.657-88.747c51.444-21.699 105.326-32.67 161.646-32.67s110.202 10.971 161.402 32.67c49.737 20.968 93.623 50.469 131.901 88.747s67.779 82.164 88.747 131.901c21.699 51.2 32.67 105.082 32.67 161.402s-10.971 110.202-32.67 161.646c-20.968 49.493-50.469 93.379-88.747 131.657s-82.164 68.023-131.901 88.99c-51.2 21.699-105.082 32.67-161.402 32.67s-110.202-10.971-161.646-32.67c-49.493-20.968-93.623-50.469-131.901-88.747s-67.779-82.408-88.747-131.901zM825.118 315.789c-17.31-40.716-41.448-76.8-72.899-108.008-31.208-31.451-67.291-55.589-108.008-72.899-41.935-17.798-86.065-26.575-132.145-26.575s-90.21 8.777-132.389 26.575c-40.472 17.31-76.556 41.448-108.008 72.899-31.208 31.208-55.589 67.291-72.899 108.008-17.798 41.935-26.575 86.065-26.575 132.145s8.777 90.21 26.575 132.389c17.31 40.472 41.691 76.556 72.899 108.008 31.451 31.208 67.535 55.589 108.008 72.899 42.179 17.798 86.309 26.575 132.389 26.575s90.21-8.777 132.145-26.575c40.716-17.31 76.8-41.691 108.008-72.899 31.451-31.451 55.589-67.535 72.899-108.008 17.798-42.179 26.575-86.309 26.575-132.389s-8.777-90.21-26.575-132.145zM438.436 338.951l-112.152 116.297-54.126-52.175 122.88-127.269c5.608-5.851 12.19-10.484 19.749-13.653 7.314-3.17 15.116-4.632 22.918-4.876 8.29 0 16.335 1.463 23.893 4.632 7.802 3.413 14.872 8.29 20.724 14.385l272.823 285.257-54.37 51.931-262.339-274.53z" />
<glyph unicode="&#xe91f;" glyph-name="Down" d="M474.453 195.039v605.377h75.093v-605.611l221.267 229.4 54.126-52.175-263.558-273.067c-6.339-6.827-14.141-12.19-23.406-16.091-8.533-3.413-17.554-5.12-27.063-4.876-8.777 0.244-17.31 2.194-25.6 5.608-8.29 3.657-15.604 8.533-22.187 14.872l-264.046 273.554 54.126 52.175 221.248-229.166z" />
<glyph unicode="&#xe920;" glyph-name="Fold" d="M516.024 546.341c1.707-0.731 3.657-1.95 5.851-3.901l350.354-311.832 49.981 56.076-349.867 311.345c-17.31 15.604-36.328 23.65-56.808 23.893-20.236 0.244-39.253-7.314-56.808-22.43l-356.693-311.589 49.493-56.564 356.693 311.589c1.95 1.707 3.657 2.926 5.364 3.657 0.488 0.244 0.975 0.244 1.219 0.244s0.731-0.244 1.219-0.488z" />
<glyph unicode="&#xe921;" glyph-name="Jump" d="M749.886 739.001l-398.98 1.22 0.172 74.994 452.202-1.207c9.828-0.172 19.31-2.069 28.448-6.034 8.965-3.793 16.894-8.965 23.964-15.688 7.239-6.896 12.929-14.999 16.72-23.964 4.311-9.827 6.38-19.826 6.034-30.17l1.207-451.513-74.993-0.173-1.070 400.185-592.506-594.121-53.15 52.907 591.952 593.564z" />
<glyph unicode="&#xe922;" glyph-name="Left" d="M129.705 413.629c-3.657 9.265-5.608 18.53-5.851 28.282-0.244 10.24 1.463 20.236 5.12 29.501 4.145 9.996 9.752 18.773 17.554 26.088l327.436 329.387 53.15-52.907-285.231-286.93 672.581-1.548-0.244-75.093-685.278 1.577 298.172-299.949-53.15-52.907-328.168 329.874c-6.827 7.314-12.19 15.36-16.091 24.625z" />
<glyph unicode="&#xe923;" glyph-name="Right1" d="M498.671 773.98l53.15 52.907 327.436-329.387c7.802-7.314 13.653-16.091 17.554-26.088 3.657-9.265 5.364-19.261 5.12-29.501-0.244-9.752-2.194-19.017-5.851-28.282-3.901-9.265-9.265-17.31-16.091-24.625l-328.168-329.874-53.15 52.907 298.394 299.949-685.397-1.577-0.244 75.093 672.478 1.548-285.23 286.93z" />
<glyph unicode="&#xe924;" glyph-name="Unfold" d="M572.013 224.649l347.916 308.175-49.737 56.32-348.404-308.419c-2.194-1.95-3.901-3.413-5.608-4.145-0.731-0.244-1.219-0.488-1.463-0.488s-0.731 0.244-1.219 0.488c-1.707 0.488-3.413 1.707-5.364 3.413l-354.499 308.419-49.25-56.564 354.499-308.419c17.554-15.116 36.571-22.674 56.564-22.43 20.48 0.244 39.253 8.046 56.564 23.65z" />
<glyph unicode="&#xe925;" glyph-name="Up" d="M253.188 451.848l-54.126 52.175 264.046 273.554c6.339 6.339 13.653 11.215 22.187 14.872 8.046 3.413 16.823 5.364 25.6 5.608 9.509 0.244 18.286-1.463 27.063-4.876 9.021-3.901 16.823-9.265 23.406-16.091l263.558-273.066-54.126-52.175-221.25 229.165v-605.397h-75.093v605.63l-221.264-229.398z" />
<glyph unicode="&#xe926;" glyph-name="Bold" d="M205.155 125.307c0-22.43 5.364-41.935 15.848-58.514 8.777-13.897 20.724-24.869 36.084-32.67 9.996-5.364 20.968-9.021 32.67-10.971 6.095-1.219 11.459-1.707 16.335-1.707h299.886c28.038 0 53.882 3.413 78.263 10.24 28.282 7.802 53.15 20.236 74.362 36.815 23.893 19.261 42.423 43.154 55.101 72.411 13.41 30.476 19.992 66.072 19.992 106.545 0 40.716-7.314 76.312-22.187 107.032-13.41 28.526-32.914 51.931-58.027 70.217-18.042 13.166-38.278 23.406-61.196 30.72 21.699 19.992 37.79 44.617 48.762 73.63 10.484 28.038 15.604 59.733 15.604 95.33 0 83.139-23.406 146.286-69.973 189.196-44.13 40.716-107.032 60.952-188.709 60.952h-200.411c-4.389 0-9.265-0.488-14.872-1.463-10.24-1.95-19.992-5.12-29.013-9.996-13.166-7.070-23.893-16.823-32.183-29.013-9.752-14.629-15.116-31.695-16.335-51.444v-657.31zM497.97 468.347h-217.722v310.857c0.488 5.608 1.707 9.996 3.657 13.166 1.219 1.707 2.926 3.17 5.12 4.389s4.389 1.95 7.070 2.438c0.731 0 1.463 0.244 2.194 0.244h199.68c62.171 0 108.251-13.653 137.996-40.96 30.476-28.038 45.592-72.899 45.592-134.095 0-51.688-13.897-90.21-41.691-115.322-29.989-27.063-77.288-40.716-141.897-40.716zM709.109 364.24c32.914-24.137 49.493-63.147 49.493-116.785 0-55.345-15.604-95.33-46.811-119.954-13.166-10.484-29.013-18.286-47.787-23.65-17.554-4.876-37.059-7.314-58.027-7.314h-299.886c-0.975 0-2.194 0.244-3.413 0.488-4.145 0.731-7.802 1.95-10.971 3.413-3.17 1.95-5.851 4.145-7.558 6.827-2.682 4.145-3.901 10.24-3.901 18.042v267.947h325.73q28.526 0 54.126-6.583c19.017-5.12 35.352-12.434 49.006-22.43z" />
<glyph unicode="&#xe927;" glyph-name="BottomAlignment" d="M598.768 468.436l-53.882 52.175-146.286-150.918v463.97h-75.093v-461.044l-143.604 147.992-53.882-52.175 193.585-199.68c5.608-5.608 11.947-9.996 19.261-13.166 7.314-2.926 14.872-4.632 22.674-4.876 8.29 0 16.091 1.463 23.65 4.389 8.046 3.413 14.872 8.046 20.724 14.385l192.853 198.949zM688.978 165.38c-6.827 2.926-12.434 6.827-17.554 11.947l-133.364 138.24 54.126 52.175 79.482-82.408v292.815h75.093v-294.034l80.457 83.627 54.126-52.175-133.364-138.24c-5.12-5.364-11.459-9.509-18.286-12.434-6.583-2.682-13.653-3.901-20.724-3.657-6.827 0-13.653 1.463-19.992 4.145zM877.686 44.451v75.093l-731.429 0.244v-75.093l731.429-0.244z" />
<glyph unicode="&#xe928;" glyph-name="Callout" d="M350.421 65.884c-49.493 20.968-93.379 50.469-131.657 88.747s-68.023 82.164-88.99 131.901c-21.699 51.2-32.67 105.082-32.67 161.402s10.971 110.202 32.67 161.646c20.968 49.493 50.469 93.623 88.747 131.901s82.408 67.779 131.901 88.747c51.444 21.699 105.326 32.67 161.646 32.67s110.202-10.971 161.402-32.67c49.737-20.968 93.623-50.712 131.901-88.99s67.779-82.164 88.747-131.657c21.699-51.444 32.67-105.326 32.67-161.646s-10.971-110.202-32.67-161.402c-20.968-49.737-50.469-93.623-88.747-131.901s-82.164-67.779-131.901-88.747c-51.2-21.699-105.082-32.67-161.402-32.67s-110.202 10.971-161.646 32.67zM379.678 761.229c-40.472-17.31-76.556-41.691-108.008-72.899-31.208-31.451-55.589-67.535-72.899-108.008-17.798-42.179-26.575-86.309-26.575-132.389s8.777-90.21 26.575-132.145c17.31-40.716 41.691-76.8 72.899-108.008 12.558-12.559 25.855-23.949 39.874-34.206v475.568h68.819c9.472 4.48 18.71 8.487 27.487 11.57 23.893 8.533 48.518 12.678 74.118 12.678 20.724 0 40.716-3.657 60.221-11.215 7.314-2.682 14.872-6.095 22.674-10.24 4.389-2.438 10.484-5.851 18.286-10.24 9.509-5.364 16.091-9.021 19.992-10.728s7.314-2.438 9.752-2.438c20.48 0 40.472 1.463 60.465 4.632 9.509 1.463 16.823 2.926 21.943 4.145l47.055 12.19v-284.281l-21.699-10.24c-7.314-3.17-17.31-6.339-29.989-9.021-22.674-5.12-48.518-7.558-77.775-7.558-18.286 0-35.109 2.926-50.712 8.777-6.095 2.194-12.19 5.12-18.53 8.533-3.657 1.95-8.29 4.632-14.385 8.29-9.509 5.851-16.335 9.509-21.211 11.215-7.314 2.682-16.091 4.145-26.088 4.145q-28.526 0-56.32-8.777c-7.070-2.438-14.629-5.364-22.674-8.777-4.052-1.824-9.452-4.32-16.335-7.631v-222.137c40.065-15.887 81.876-23.728 125.428-23.728 46.080 0 90.21 8.777 132.145 26.575 40.716 17.31 76.8 41.448 108.008 72.899 31.451 31.208 55.589 67.291 72.899 108.008 17.798 41.935 26.575 86.065 26.575 132.145s-8.777 90.21-26.575 132.389c-17.31 40.472-41.448 76.556-72.899 108.008-31.208 31.208-67.291 55.589-108.008 72.899-41.935 17.798-86.065 26.575-132.145 26.575s-90.21-8.777-132.389-26.575zM386.639 436.165c5.364 2.194 10.728 4.145 16.091 5.851 25.844 8.29 52.419 12.434 79.238 12.434 19.017 0 36.328-2.926 52.175-8.777 6.339-2.438 12.922-5.364 19.261-8.777 3.657-1.95 8.533-4.876 14.872-8.533 9.021-5.608 15.848-9.265 20.236-10.971 7.070-2.682 15.116-3.901 24.381-3.901 20.48 0 38.522 1.463 54.37 4.145v138.971c-18.042-2.194-36.084-3.17-54.37-3.17-12.678 0-25.6 2.926-39.010 8.533-6.827 2.682-16.091 7.802-28.282 14.629-13.166 7.802-23.162 12.922-30.232 15.604-10.728 4.145-21.943 6.095-33.402 6.095-16.823 0-33.158-2.926-49.006-8.533-6.583-2.194-13.166-5.12-20.48-8.533-4.632-2.194-11.215-5.608-19.992-10.484-1.95-0.975-3.901-2.194-5.851-3.17v-131.413z" />
<glyph unicode="&#xe929;" glyph-name="Centre" d="M493.024 647.395c6.339-2.682 13.166-4.145 19.992-4.145 7.070-0.244 14.141 0.975 20.724 3.657 6.827 2.926 13.166 7.070 18.286 12.434l133.364 138.24-54.126 52.175-117.516-121.905-117.516 121.905-54.126-52.175 133.364-138.24c5.12-5.12 10.728-9.021 17.554-11.947zM232.148 447.959l-121.905-117.516 52.175-54.126 138.24 133.364c5.12 5.12 9.021 10.728 11.947 17.554 2.682 6.339 4.145 13.166 4.145 19.992 0.244 7.070-0.975 14.141-3.657 20.724-2.926 6.827-7.070 13.166-12.434 18.286l-138.24 133.364-52.175-54.126 121.905-117.516zM710.502 446.984c-0.244 7.314 1.219 14.385 3.901 21.211 2.926 7.070 7.070 13.166 12.434 18.042l137.996 133.364 52.175-53.882-121.661-117.76 121.661-117.516-52.175-53.882-137.996 133.12c-5.12 4.876-9.021 10.728-11.947 17.31-2.682 6.339-4.145 12.922-4.389 19.992zM666.129 519.395c0 25.356-7.802 45.349-23.162 60.221s-36.571 22.187-63.634 22.187h-133.851c-24.381 0-44.373-6.339-59.733-19.261-9.265-7.558-16.335-17.067-20.968-28.282-4.389-10.484-6.583-22.187-6.583-34.865v-142.872c0-12.678 2.194-24.381 6.583-34.865 4.632-11.215 11.703-20.724 20.724-28.526 15.604-12.922 35.596-19.261 59.977-19.261h133.851c27.063 0 48.274 7.314 63.878 22.187 15.36 14.872 22.918 35.109 22.918 60.465v142.872zM590.548 525.49c0.244-1.463 0.488-3.657 0.488-6.095v-142.872c0-2.682-0.244-4.632-0.488-6.339h-0.244c-2.438-0.731-6.339-1.219-10.971-1.219h-133.851c-3.901 0-7.070 0.488-9.752 1.219-0.731 0.244-1.463 0.244-1.707 0.488q-0.731 1.829-0.731 5.851v142.872c0 2.438 0.244 4.389 0.731 5.608 0.244 0.244 0.975 0.488 1.707 0.488 2.438 0.731 5.851 1.219 9.752 1.219h133.851c4.632 0 8.533-0.488 10.971-1.219h0.244zM779.013 432.355c0.244 0 0.488 0.244 0.731 0.488l-0.731-0.488zM342.106 101.749l133.851 138.728c4.876 4.876 10.728 8.777 17.31 11.459 6.339 2.682 12.922 4.145 19.992 4.145 7.070 0.244 14.141-1.219 20.724-3.901 7.070-2.926 13.166-6.827 18.042-12.19l133.364-138.24-54.126-52.175-117.516 121.905-117.516-121.905-54.126 52.175z" />
<glyph unicode="&#xe92a;" glyph-name="CodeBlock" d="M316.162 72.837h393.021c59.002 0 103.863 14.629 134.095 43.886 29.257 28.282 43.886 68.998 43.886 121.661v419.352c0 52.663-14.629 93.379-43.886 121.661-30.232 29.257-75.093 43.886-134.095 43.886h-393.021c-25.112 0-47.543-2.926-68.023-8.777-22.674-6.583-41.935-16.823-58.27-29.989-17.554-14.629-30.72-32.67-39.741-53.882-9.021-21.455-13.41-45.836-13.41-72.899v-419.352c0-27.307 4.389-51.688 13.41-72.899 9.021-21.455 22.187-39.497 39.741-53.882 16.335-13.41 35.596-23.406 58.27-29.989 20.48-6.095 42.91-8.777 68.023-8.777zM819.628 657.736v-419.352c0-33.646-7.802-58.027-23.162-72.899-17.554-16.823-46.568-25.112-87.284-25.112h-393.021c-36.571 0-64.366 7.802-83.139 23.162-19.261 15.848-28.77 40.716-28.77 74.85v419.352c0 33.89 9.509 58.758 28.77 74.606 18.773 15.604 46.568 23.406 83.139 23.406h393.021c40.716 0 69.73-8.533 87.284-25.112 15.36-14.872 23.162-39.253 23.162-72.899zM245.944 407.587l140.678-144.823 48.518 47.055-131.413 135.558 131.17 138.24-49.006 46.568-141.166-148.48c-9.752-11.215-14.629-23.406-14.385-37.059s5.12-25.844 15.604-36.815v-0.244zM779.4 482.68c9.752-10.971 14.629-23.162 14.385-36.815-0.244-13.41-5.364-25.844-15.36-36.815l-0.244-0.488-140.678-144.335-48.518 47.055 131.413 135.070-131.17 135.070 48.518 47.299 141.653-146.041zM556.314 536.075l46.568-49.006-136.046-128.975-46.568 49.006 136.046 128.975z" />
<glyph unicode="&#xe92b;" glyph-name="Font" d="M494.457 266.118h-56.32v-75.093h187.002v75.093h-53.394l-50.225 200.899-76.8 318.171c-5.364 20.968-16.091 37.303-32.427 49.493-15.116 10.971-32.183 16.579-50.956 16.579-9.265 0-18.042-1.463-26.575-4.145-9.021-2.926-17.067-7.070-24.625-12.678-16.091-12.19-26.575-28.526-31.451-49.006l-93.135-364.983h0.731l-37.059-154.331h-62.415v-75.093h204.069v75.093h-64.366l37.059 154.331h192.122l38.766-154.331zM775.381 211.505c9.752 38.522 16.091 86.552 19.261 144.579 1.219 22.674 1.95 48.518 2.438 77.775 0.244 10.971 0.244 25.356 0.244 43.398l111.909-0.244v75.093l-111.665 0.244v33.402l-0.244 79.726v0.731c0.244 1.463 0.244 3.17 0.731 4.876 0.975 5.608 2.438 10.728 4.632 15.116 2.682 4.876 5.851 8.777 9.752 11.215 5.851 3.657 13.653 5.608 23.65 5.608h73.143v75.093h-73.143c-24.869 0-46.568-5.851-64.61-17.798-15.116-9.996-27.063-23.162-35.596-40.229-5.608-11.215-9.752-23.162-11.947-36.328-1.219-6.827-1.707-12.922-1.707-18.042l0.244-79.97v-33.402l-105.813-0.244v-75.093l105.57 0.244c0-17.554 0-31.695-0.244-42.423-0.488-28.038-1.219-53.15-2.438-74.606-2.682-53.15-8.533-96.549-16.823-130.438-9.509-37.059-22.43-64.366-39.253-81.92-8.046-8.533-17.31-15.116-27.55-19.261-11.459-4.632-24.381-7.070-39.253-7.070h-114.59v-75.093h114.59c49.25 0 89.722 16.579 121.173 49.493 25.844 27.307 45.105 65.829 57.539 115.566zM282.099 495.543l69.73 272.091v0.244c1.219 5.608 4.389 8.29 9.509 8.29 5.364 0 8.777-2.926 10.24-8.533l65.585-272.091h-155.063z" />
<glyph unicode="&#xe92c;" glyph-name="Headline1" d="M220.404 410.431h363.764v-356.45h75.093v787.992h-75.093v-356.45h-363.764v356.45h-75.093v-787.992h75.093v356.45zM803.596 48.996h75.093v496.396h-67.535l-8.777-25.112c-0.731-2.194-2.194-5.12-4.632-9.265-4.876-9.265-10.728-17.554-17.798-25.112-21.943-23.65-50.225-35.352-85.090-35.352v-75.093c30.72 0 59.002 6.095 84.846 18.53 8.29 3.901 16.335 8.533 23.893 13.653v-358.644z" />
<glyph unicode="&#xe92d;" glyph-name="Headline2" d="M197.131 410.431h343.771v-356.45h75.093v787.992h-75.093v-356.45h-343.771v356.45h-75.093v-787.992h75.093v356.45zM690.845 469.611c-10.971-12.19-19.505-26.575-25.112-42.91s-8.533-34.133-8.533-53.394v-18.286h75.093v18.286c0 20.236 4.876 35.596 14.385 46.080 7.558 8.533 17.554 12.678 29.745 12.678 13.897 0 25.112-4.145 33.158-12.434 10.484-10.484 15.604-27.063 15.604-49.737v-51.444c0-6.827-1.463-12.922-4.145-18.042s-6.827-9.996-12.678-14.872c-5.851-5.12-13.897-10.24-23.893-15.604-6.583-3.657-17.31-8.777-31.939-15.604-13.897-6.339-24.381-11.215-30.964-14.629-12.19-6.339-22.43-12.922-30.72-19.261-25.6-19.992-38.522-44.373-38.522-73.387v-88.99h238.69v75.093h-163.596v13.897c0 2.194 0.488 4.145 1.463 5.851 1.463 2.438 4.145 5.12 8.046 8.29 4.632 3.657 11.215 7.558 19.261 11.947 5.608 2.682 14.872 7.070 27.55 12.922 16.091 7.558 28.038 13.41 36.084 17.554 14.629 7.802 27.063 15.848 36.815 24.381 29.013 24.381 43.642 54.37 43.642 90.453v51.444c0 21.211-3.17 40.472-9.509 57.783s-15.36 32.183-27.55 44.617c-11.703 11.703-25.356 20.724-40.96 26.575-14.385 5.608-29.745 8.29-45.836 8.29-16.579 0-32.183-3.17-46.811-9.509-14.872-6.339-27.794-15.848-38.766-28.038z" />
<glyph unicode="&#xe92e;" glyph-name="Headline3" d="M615.996 841.974h-75.093v-356.45h-343.771v356.45h-75.093v-787.992h75.093v356.45h343.771v-356.45h75.093v787.992zM729.721 232.584h16.579c3.17 0 7.314-0.488 12.922-1.219 11.215-1.463 21.455-4.389 30.476-8.29 11.215-4.632 19.505-10.728 25.356-18.042 6.827-8.777 10.24-20.48 10.24-34.621v-11.703c0-7.802-2.438-14.385-7.558-19.749-7.802-8.29-21.699-12.434-41.448-12.434-18.773 0-31.451 3.657-37.547 10.971-4.145 4.876-6.339 11.947-6.339 21.211v23.406h-75.093v-23.406c0-11.703 1.463-22.918 4.632-33.402 4.145-13.897 10.728-26.088 19.505-36.328 10.484-12.434 23.65-21.699 39.497-28.038 16.091-6.339 34.377-9.509 55.345-9.509 20.724 0 39.253 3.17 55.832 9.509 15.848 6.095 29.257 14.872 40.472 26.575 9.752 10.24 16.823 22.187 21.699 35.84 4.145 11.459 6.095 23.162 6.095 35.352v11.703c0 31.451-8.777 58.27-26.088 80.701-3.901 4.876-8.046 9.509-12.678 13.897 25.844 22.674 38.766 57.051 38.766 103.131v19.992c0 19.017-3.413 36.328-10.484 51.931-6.583 15.36-16.335 28.526-29.013 39.497-11.703 9.752-25.112 17.31-40.472 22.43-13.897 4.632-28.526 6.827-44.13 6.827-16.091 0-31.451-2.926-46.080-9.021-14.385-6.095-27.063-14.385-38.034-25.356-10.971-11.215-19.505-24.137-25.6-38.766-6.095-14.872-9.265-30.72-9.265-47.543v-18.286h75.093v18.286c0 13.41 4.389 24.625 12.922 33.158 8.29 8.29 18.53 12.434 30.964 12.434 7.558 0 14.385-0.975 20.724-3.17 5.851-1.95 10.971-4.632 14.872-8.29 9.021-7.558 13.41-18.773 13.41-34.133v-19.992c0-15.116-1.95-26.819-5.608-35.596-2.438-5.851-6.095-10.484-10.728-13.653-10.971-7.558-31.939-11.215-62.659-11.215h-16.579v-75.093z" />
<glyph unicode="&#xe92f;" glyph-name="Headline4" d="M197.131 410.431h320.61v-356.45h75.093v787.992h-75.093v-356.45h-320.61v356.45h-75.093v-787.992h75.093v356.45zM793.623 49.127h75.093v101.912h49.006v75.093h-49.006v259.413h-107.764l-5.12-31.451c-0.731-4.145-2.194-10.24-4.145-18.286-4.632-16.579-10.24-33.646-17.31-50.956-9.996-23.893-21.699-46.811-35.352-68.023-17.067-26.575-36.571-50.225-58.27-70.949l-11.703-11.215v-83.627h164.571v-101.912zM793.623 333.409v-107.276h-68.267c13.166 15.604 25.356 32.427 36.815 50.225 11.703 18.042 22.187 37.059 31.451 57.051z" />
<glyph unicode="&#xe930;" glyph-name="Headline5" d="M197.131 410.431h320.61v-356.45h75.093v787.992h-75.093v-356.45h-320.61v356.45h-75.093v-787.992h75.093v356.45zM769.264 123.068h-130.926v-75.093h129.219c6.339-0.244 13.653 0.244 21.943 1.463 17.067 1.95 32.914 6.095 47.543 12.434 21.943 9.509 39.253 23.162 52.419 40.716 16.091 21.943 24.137 48.274 24.137 79.482s-8.046 57.539-24.381 79.238c-13.166 17.554-30.964 30.72-53.15 39.497-14.629 5.851-30.476 9.752-47.787 11.215-8.046 0.731-15.116 0.975-21.211 0.731h-56.32v104.35h178.712v75.093h-253.806v-254.537h134.583c2.682 0.244 6.339 0 11.215-0.488 9.752-0.731 18.773-2.926 26.575-6.095 9.265-3.657 16.335-8.777 21.211-15.116 6.095-8.046 9.265-19.505 9.265-33.89 0-14.629-3.17-26.331-9.509-34.865-5.12-6.827-12.19-12.19-21.943-16.335-7.802-3.413-16.823-5.851-26.819-7.070-4.876-0.488-8.533-0.731-10.971-0.731z" />
<glyph unicode="&#xe931;" glyph-name="IncreaseIndentation" d="M800.515 813.727h75.093l-0.244-731.429h-75.093l0.244 731.429zM446.501 678.12l51.931 54.37 196.754-188.465c12.678-11.459 22.674-25.844 29.989-43.154 7.070-16.335 10.971-33.646 11.703-51.931 0.731-19.261-2.194-37.79-8.533-55.345-7.070-19.261-17.554-36.328-32.183-50.712l-0.244-0.488-197.486-188.709-51.931 54.37 196.754 187.977c6.583 6.583 11.215 14.141 14.385 22.918 3.17 8.533 4.389 17.554 4.145 27.063-0.488 9.021-2.194 17.554-5.608 25.6-3.17 7.070-7.070 12.922-11.703 17.067l-197.973 189.44zM598.814 422.798c-2.926-7.070-7.070-13.166-12.434-18.042l-137.996-133.364-52.175 53.882 88.003 85.18h-359.536v75.093h349.182l-77.648 75.003 52.175 53.881 137.996-133.119c5.12-4.876 9.021-10.728 11.947-17.31 2.682-6.339 4.145-12.922 4.389-19.992 0.244-7.314-1.219-14.385-3.901-21.211z" />
<glyph unicode="&#xe932;" glyph-name="ItalicType" d="M425.899 894.482c-14.629 0-27.794-3.413-39.253-10.24-9.752-5.608-17.798-13.41-24.137-22.918-4.145-6.339-7.314-13.41-9.752-20.968-1.219-3.901-1.95-7.558-2.438-10.971l-4.145-32.427-2.926-22.918c-0.488-3.657-0.731-7.802-0.488-12.434q0-14.263 5.12-27.063c5.12-13.41 13.653-24.137 25.356-31.939 12.678-8.533 28.282-12.922 46.324-12.922h2.194l-56.564-490.057h-14.629c-17.067 0-32.427-3.901-46.324-11.459-11.215-6.339-20.968-14.872-28.77-25.6-5.12-7.314-9.509-15.116-12.678-23.893-1.707-4.632-2.926-8.777-3.657-12.678l-0.244-0.975-3.413-24.869c-0.731-4.145-1.219-8.777-1.219-13.897-0.244-11.215 1.463-21.699 4.632-31.695 5.364-15.604 14.629-28.038 27.55-37.547 14.385-10.484 32.427-15.604 53.882-15.604h267.459c16.579 0 31.695 3.657 44.861 10.971 11.215 6.339 20.48 14.629 28.038 25.112 5.12 7.070 9.021 14.872 11.947 23.406 1.707 4.632 2.682 8.777 3.413 12.678l5.608 35.109 0.244 1.707c0.244 4.389 0 9.265-0.488 14.629-1.219 10.24-3.901 19.749-8.046 28.77-6.583 13.41-16.091 24.381-28.526 32.183-14.141 9.021-30.964 13.653-50.469 13.653h-1.463l55.589 490.057h5.851c16.579 0 31.451 4.145 44.617 12.19 10.728 6.339 19.505 15.116 26.819 25.844 4.632 7.314 8.533 15.116 11.215 23.406 1.707 4.389 2.682 8.533 3.413 12.19l3.901 23.65 3.17 29.013c0.488 3.17 0.731 6.827 0.731 10.484q0 13.531-4.389 25.6c-4.632 12.678-12.678 22.918-23.65 30.476-11.947 8.046-26.331 11.947-43.154 11.947h-271.116zM506.112 764.775h-88.259l2.926 22.43 3.901 31.451c0.244 0.244 0.244 0.488 0.244 0.731h267.215l-2.438-22.187-3.17-20.236c-0.244-0.488-0.244-0.975-0.488-1.707-0.731-2.194-1.707-4.145-2.926-5.851-0.975-1.707-2.194-2.926-3.17-3.413-1.219-0.731-3.17-1.219-5.608-1.219h-72.655l-73.143-640.244h85.821c4.876 0 8.29-0.488 10.24-1.707 0.244-0.244 0.488-0.731 0.975-1.463 0.488-1.219 0.975-2.926 1.219-4.876v-0.488l-4.632-29.501c-0.244-0.244-0.244-0.488-0.488-0.731-0.488-1.707-1.219-3.413-2.194-4.632-0.975-1.463-1.95-2.438-3.17-2.926-1.95-1.219-4.876-1.707-8.533-1.707h-267.459c-3.413 0-6.339 0.244-8.533 0.975-0.488 0.244-0.975 0.244-1.463 0.488 0 0.244 0 0.488-0.244 0.731-0.488 1.707-0.731 3.901-0.731 6.339 0 0.975 0 1.95 0.244 2.682v0.488l3.17 23.406c0.244 0.488 0.244 0.731 0.488 0.975q1.097 3.291 2.926 5.851c1.463 1.707 2.926 3.17 4.632 4.145 2.438 1.219 5.608 1.95 9.752 1.95h81.432l74.118 640.244z" />
<glyph unicode="&#xe933;" glyph-name="LeftAlignment" d="M601.234 421.763l-188.221 182.613 4.145 3.901v-2.682h534.674v75.093h-459.825l109.227 106.057-52.175 53.882-199.68-193.585c-5.608-5.608-9.996-11.947-13.166-19.261-2.926-7.314-4.632-14.872-4.876-22.674 0-8.29 1.463-16.091 4.389-23.65 3.413-8.046 8.046-14.872 14.385-20.724l198.949-192.853 52.175 53.882zM108.983 813.809l-0.244-731.429h75.093l0.244 731.429h-75.093zM257.95 295.226l138.24 133.364 52.175-54.126-43.398-41.935h291.352v-75.093h-369.371l-0.488-0.488 121.905-117.516-52.175-54.126-138.24 133.364c-5.364 5.12-9.509 11.459-12.434 18.286-2.682 6.583-3.901 13.653-3.657 20.724 0 6.827 1.463 13.653 4.145 19.992 2.926 6.827 6.827 12.434 11.947 17.554z" />
<glyph unicode="&#xe934;" glyph-name="Link5" d="M710.916 379.022l-52.419 52.175 123.368 123.611c13.897 13.653 24.381 27.794 31.695 42.423 6.827 13.897 10.728 27.55 11.215 41.448 1.463 29.257-11.459 57.539-38.766 84.846-27.063 27.063-55.345 39.985-84.602 38.522-13.897-0.488-27.307-4.389-41.448-11.215-14.385-7.314-28.77-17.798-42.423-31.695l-123.611-123.368-52.175 52.175 123.368 123.611c19.505 19.261 40.229 34.621 61.928 45.349 22.918 11.703 46.568 17.798 70.949 19.017 24.869 1.219 49.493-3.413 73.387-13.41 23.65-10.24 46.080-25.844 67.048-46.811 20.724-20.968 36.328-43.154 46.568-67.048 10.484-23.893 14.872-48.274 13.897-73.387-1.219-24.381-7.558-48.030-19.017-70.949-10.971-21.943-26.331-42.667-45.592-61.928l-123.368-123.368zM715.061 600.645l-356.45-356.45-52.175 52.175 356.45 356.45 52.175-52.175zM363.975 145.696c-14.141-6.583-27.794-10.484-41.448-10.971-29.501-1.707-57.783 11.459-85.090 38.522-27.063 27.307-39.985 55.345-38.522 84.846 0.488 13.653 4.389 27.307 11.215 41.448 7.314 14.385 17.798 28.526 31.695 42.423l123.368 123.368-52.175 52.175-123.611-123.368c-19.261-19.261-34.621-39.985-45.349-61.684-11.703-23.162-17.798-46.811-19.017-70.949-1.219-25.112 3.413-49.737 13.41-73.387 10.24-23.893 25.844-46.324 46.811-67.048 20.968-20.968 43.398-36.571 67.048-46.811 23.893-10.24 48.274-14.629 73.63-13.653 24.137 1.219 47.787 7.558 70.949 19.017 21.699 10.728 42.423 26.088 61.684 45.592l123.368 123.368-52.175 52.175-123.368-123.368c-13.897-13.653-28.038-24.381-42.423-31.695z" />
<glyph unicode="&#xe935;" glyph-name="Mark" d="M802.394 840.312v-160.427c0-2.438 0-4.632-0.244-7.070-0.975-8.046-3.17-15.36-6.339-21.699-9.996-19.505-31.695-29.257-65.585-29.257h-438.857c-34.865 0-56.564 9.509-65.585 28.282-2.926 6.339-4.632 13.166-5.12 20.968-0.244 2.438-0.244 4.632-0.244 6.827 0 0.488 0.244 0.975 0.244 1.463l0.244 2.194v158.72h-75.093v-154.088c-0.488-6.095-0.731-12.922-0.244-20.236 1.219-17.31 5.364-33.158 12.434-47.787 9.996-21.699 25.6-38.522 46.080-50.712q21.577-12.8 49.737-17.554v-187.733h69.973l-82.651-280.869h498.59c13.653 0 26.331 2.438 37.79 7.314 11.703 4.876 21.455 11.947 29.745 21.211 7.558 8.533 13.166 18.286 17.067 29.257 3.413 10.24 4.876 20.724 4.632 31.695-0.244 10.728-2.194 21.211-6.095 31.208-4.145 10.728-9.752 19.992-17.31 28.282-8.046 9.021-17.554 15.848-28.77 20.724-11.459 5.12-23.893 7.558-37.059 7.558h-57.539l35.352 103.619h50.225v187.733c18.042 3.413 34.133 9.265 48.518 17.554 20.236 12.19 35.84 28.526 46.568 49.737 7.314 14.385 11.947 29.989 13.897 47.055 0.731 7.802 0.975 14.872 0.731 20.968v155.063h-75.093zM692.679 437.295h-363.764v109.47h363.764v-109.47zM593.937 232.007c-0.488-1.219-0.975-2.682-1.707-4.632-0.731-1.707-1.707-3.901-2.926-6.095-4.632-9.996-10.484-19.261-17.31-27.55-20.48-24.869-46.811-37.303-78.75-37.303h-151.65l60.465 205.775h236.251l-35.352-103.619h-0.975l-8.046-26.088v-0.488zM637.822 156.426c6.339 8.533 11.703 17.554 16.579 27.063h85.333c4.632 0 8.046-1.219 10.24-3.657 2.438-2.682 3.901-6.339 3.901-10.728 0.244-4.145-0.731-7.070-2.682-9.265s-5.851-3.413-11.459-3.413h-101.912z" />
<glyph unicode="&#xe936;" glyph-name="OrderedList" d="M175.366 758.325c5.364 4.632 10.24 9.509 14.141 15.116 1.95 2.438 2.926 3.901 3.413 4.876l10.728 19.749h63.39v-296.96h-75.093v178.225c-3.901-1.95-7.802-3.657-11.703-5.364-19.992-8.29-41.448-12.434-63.878-12.434v75.093c22.674 0 42.423 7.314 59.002 21.699zM914.196 676.427v75.093h-545.158v-75.093h545.158zM914.196 526.816v75.095h-545.158v-75.095h545.158zM157.124 233.513c5.12 5.12 11.459 10.24 19.017 15.604 4.145 2.926 10.24 7.070 18.53 12.19 9.021 5.851 15.604 10.24 19.749 13.166 5.851 4.389 10.484 8.29 13.897 12.19 3.413 3.413 5.608 7.070 7.314 10.484 1.463 3.413 2.194 7.558 2.194 11.947v9.509c0 10.728-1.95 18.042-5.851 21.943-1.95 2.194-5.364 3.413-9.509 3.413-2.926 0-5.12-0.975-6.827-2.926-3.657-4.145-5.364-10.971-5.364-20.48v-11.459h-75.093v11.459c0 13.653 1.95 26.088 5.851 37.79 3.901 12.19 9.996 22.918 17.798 31.939 8.29 9.265 17.798 16.579 29.013 21.455 10.728 4.876 22.43 7.314 34.621 7.314 11.703 0 22.918-2.194 33.402-6.339 11.703-4.389 21.699-11.215 30.476-19.992 8.777-9.265 15.36-20.236 19.992-33.158 4.389-12.434 6.583-26.088 6.583-40.96v-9.509c0-27.794-9.752-52.175-29.501-73.387-6.827-7.314-15.116-14.629-24.869-21.699-5.364-3.901-13.166-9.265-23.406-15.848-9.996-6.339-17.31-11.459-21.943-15.116h96.061v-75.093h-177.25v69.973c0 20.724 8.29 39.253 25.112 55.589zM910.873 287.441v75.093h-545.158v-75.093h545.158zM844.557 144.479v75.093h-478.842v-75.093h478.842z" />
<glyph unicode="&#xe937;" glyph-name="RightAlignment" d="M147.244 530.502v75.093h462.507l-187.002 181.15 52.175 53.882 200.168-193.829c5.364-5.608 9.509-12.19 12.678-19.505 2.926-7.070 4.389-14.385 4.632-22.187 0.244-8.046-1.219-15.848-4.145-23.406-1.707-4.389-3.657-8.29-6.339-11.947v-39.253h-39.010l-167.985-162.621-52.175 53.882 112.152 108.739h-387.657zM840.395 82.38l-0.244 731.429h75.093l0.244-731.429h-75.093zM620.479 182.342l-44.617-43.154 52.175-53.882 100.45 97.036h46.080v46.811c1.463 2.438 2.682 4.876 3.901 7.558 2.682 6.827 4.145 13.897 3.901 21.211-0.244 7.070-1.707 13.653-4.389 19.992-2.926 6.583-6.827 12.434-11.947 17.31l-137.996 133.12-52.175-53.882 120.93-117.029h-294.034v-75.093h217.722zM713.858 272.552c-0.244 0-0.488-0.244-0.731-0.488l0.731 0.488z" />
<glyph unicode="&#xe938;" glyph-name="Subscript" d="M506.636 179.76v-75.093h191.634v75.093h-54.37l-52.419 238.933-78.994 372.541c-5.12 22.43-15.36 40.229-31.208 53.638-7.558 6.339-16.091 11.215-25.356 14.629-9.021 3.413-18.53 5.12-28.282 5.12s-19.017-1.707-28.282-5.12c-9.265-3.413-17.798-8.29-25.356-14.872-15.604-13.41-25.6-31.208-30.232-53.394l-93.623-417.89h0.731l-40.472-193.585h-64.122v-75.093h209.432v75.093h-68.754l40.472 193.585h196.998l42.667-193.585h-60.465zM427.642 789.527c1.707 0 3.413-0.731 5.12-1.95 2.926-2.438 4.876-6.583 6.095-11.947l69.486-327.192h-164.571l73.63 327.192v0.244c1.219 5.608 2.926 9.509 5.608 11.947 1.463 1.219 2.926 1.707 4.632 1.707zM757.626 271.968c6.583 3.17 12.922 6.583 19.261 10.484v-236.739h75.093v366.69h-65.585l-9.752-22.674c-0.488-1.707-1.95-4.389-4.145-7.802-4.876-7.558-10.484-14.629-16.823-21.211-20.236-19.749-44.861-29.745-74.118-29.745v-75.093c27.307 0 52.419 5.364 76.069 16.091z" />
<glyph unicode="&#xe939;" glyph-name="Superscript" d="M684.684 772.466c-23.893-25.6-54.857-38.278-92.891-38.278v-75.093c32.427 0 62.415 6.339 89.478 19.261 10.24 4.876 19.992 10.728 29.257 17.31v-244.297h75.093v383.269h-67.779l-8.777-25.112c-0.975-2.194-2.438-5.608-4.876-10.24-5.364-9.752-11.947-18.53-19.505-26.819zM489.193 812.955c-9.021 3.413-18.53 5.12-28.282 5.12s-19.017-1.707-28.282-5.12c-9.265-3.413-17.798-8.29-25.356-14.872-15.604-13.41-25.6-31.208-29.989-53.15l-94.354-401.554h0.731l-49.737-226.743h-64.366v-75.093h209.432v75.093h-68.267l49.737 226.743h197.486l51.931-226.743h-60.221v-75.093h191.634v75.093h-54.37l-62.415 272.579-78.994 355.718c-4.876 22.187-15.116 39.985-30.964 53.394-7.558 6.339-16.091 11.215-25.356 14.629zM466.031 741.031c2.926-2.438 4.876-6.583 6.339-12.434l68.754-310.125h-163.596l72.899 310.369 0.244 0.488c1.219 5.608 2.926 9.509 5.608 11.947 1.463 1.219 2.926 1.707 4.632 1.707s3.413-0.731 5.12-1.95z" />
<glyph unicode="&#xe93a;" glyph-name="TextCenterAlignment" d="M474.485 407.129v-87.528l-205.044 1.463-0.488-75.093 205.531-1.463v-89.966l-300.13-1.463 0.488-75.093 674.865 3.413-0.488 75.093-299.642-1.463v88.99l204.8-1.463 0.488 75.093-205.288 1.463v88.015h273.31v75.093h-273.31v90.941l206.75-1.463 0.488 75.093-207.238 1.463v88.015h272.335v75.093h-621.714v-75.093h274.286v-87.528l-206.507 1.463-0.488-75.093 206.994-1.463v-91.429h-273.31v-75.093h273.31z" />
<glyph unicode="&#xe93b;" glyph-name="TextJustify" d="M244.785 738.621h512v75.093h-512v-75.093zM172.617 77.897l0.244 731.429h-75.093l-0.244-731.429h75.093zM904.29 809.326h-75.093l-0.244-731.429h75.093l0.244 731.429zM756.785 572.343h-512v75.093h512v-75.093zM756.785 406.065h-512v75.093h512v-75.093zM244.785 240.030v75.093h512v-75.093h-512zM756.785 73.752v75.093h-512v-75.093h512z" />
<glyph unicode="&#xe93c;" glyph-name="TextLeftAlignment" d="M862.354 814.69v-75.093h-621.714v75.093h621.714zM108.983 813.727h75.093l-0.244-731.429h-75.093l0.244 731.429zM238.867 650.118v-75.093h488.839v75.093h-488.839zM238.978 485.547v-75.093h621.714v75.093h-621.714zM238.956 320.975v-75.093h485.425v75.093h-485.425zM239.022 156.404v-75.093h674.864v75.093h-674.864z" />
<glyph unicode="&#xe93d;" glyph-name="TextRightAlignment" d="M840.155 82.298h75.093l0.244 731.429h-75.093l-0.244-731.429zM779.203 811.289h-621.714v-75.093h621.714v75.093zM781.153 646.717l-488.838 3.413-0.488-75.093 488.838-3.413 0.488 75.093zM159.195 482.146h621.714v-75.093h-621.714v75.093zM780.666 242.481l-485.425 3.413 0.488 75.093 485.425-3.413-0.488-75.093zM105.801 153.003l0.488-75.093 674.865 3.413-0.488 75.093-674.865-3.413z" />
<glyph unicode="&#xe93e;" glyph-name="ToDo" d="M607.44 864.56l-329.63-347.672-128 134.583-54.37-51.688 130.926-137.752c6.827-6.827 14.629-11.947 23.406-15.604 9.021-3.657 18.042-5.608 27.55-5.608 9.752 0 19.261 1.707 28.282 5.608 9.509 3.901 17.798 9.509 25.112 17.067l331.093 349.379-54.37 51.688z" />
<glyph unicode="&#xe93f;" glyph-name="TopAlignment" d="M146.368 772.599l731.429 0.244v75.093l-731.429-0.244v-75.093zM736.631 730.908c-6.583 2.682-13.653 4.145-20.724 3.901-7.070 0-13.653-1.463-19.992-4.145-6.583-2.682-12.434-6.583-17.31-11.459l-133.851-138.728 54.126-52.175 79.482 82.408v-292.815h75.093v294.034l80.457-83.627 54.126 52.175-133.364 138.24c-4.876 5.364-10.971 9.265-18.042 12.19zM548.166 382.016l-146.286 150.918v-463.97h-75.093v461.044l-143.604-147.992-53.882 52.175 193.585 199.68c5.608 5.608 11.947 9.996 19.261 13.166 7.314 2.926 14.872 4.632 22.674 4.876 8.29 0 16.091-1.463 23.65-4.389 8.046-3.413 14.872-8.046 20.724-14.385l192.853-198.949-53.882-52.175z" />
<glyph unicode="&#xe940;" glyph-name="Uncallout" d="M805.369 154.631c38.278 38.278 67.779 82.164 88.747 131.901 21.699 51.2 32.67 105.082 32.67 161.402s-10.971 110.202-32.67 161.646c-20.968 49.493-50.469 93.379-88.747 131.657s-82.164 68.023-131.901 88.99c-51.2 21.699-105.082 32.67-161.402 32.67s-110.202-10.971-161.646-32.67c-49.493-20.968-93.623-50.469-131.901-88.747s-67.779-82.408-88.747-131.901c-21.699-51.444-32.67-105.326-32.67-161.646s10.971-110.202 32.67-161.402c20.968-49.737 50.712-93.623 88.99-131.901s82.164-67.779 131.657-88.747c51.444-21.699 105.326-32.67 161.646-32.67s110.202 10.971 161.402 32.67c49.737 20.968 93.623 50.469 131.901 88.747zM275.328 691.908l36.216-51.304v-467.030c-14.019 10.257-27.316 21.648-39.874 34.206-31.208 31.208-55.589 67.291-72.899 108.008-17.798 41.935-26.575 86.065-26.575 132.145s8.777 90.21 26.575 132.389c17.31 40.472 41.691 76.556 72.899 108.008 1.212 1.203 2.431 2.395 3.657 3.578zM334.824 738.060c14.29 8.765 29.246 16.493 44.854 23.169 42.179 17.798 86.309 26.575 132.389 26.575s90.21-8.777 132.145-26.575c40.716-17.31 76.8-41.691 108.008-72.899 31.451-31.451 55.589-67.535 72.899-108.008 17.798-42.179 26.575-86.309 26.575-132.389s-8.777-90.21-26.575-132.145c-17.31-40.716-41.448-76.8-72.899-108.008-8.397-8.463-17.15-16.396-26.249-23.81l-109.024 154.441c27.597 0.217 52.1 2.66 73.723 7.543 12.678 2.682 22.674 5.851 29.989 9.021l21.699 10.24v284.281l-47.055-12.19c-5.12-1.219-12.434-2.682-21.943-4.145-19.992-3.17-39.985-4.632-60.465-4.632-2.438 0-5.851 0.731-9.752 2.438s-10.484 5.364-19.992 10.728c-7.802 4.389-13.897 7.802-18.286 10.24-7.802 4.145-15.36 7.558-22.674 10.24-19.505 7.558-39.497 11.215-60.221 11.215-25.6 0-50.225-4.145-74.118-12.678-4.688-1.647-9.509-3.558-14.426-5.663l-58.6 83.010zM662.592 143.318c-6.017-2.972-12.144-5.786-18.381-8.436-41.935-17.798-86.065-26.575-132.145-26.575-43.552 0-85.363 7.841-125.428 23.728v222.137c6.883 3.311 12.283 5.808 16.335 7.631 8.046 3.413 15.604 6.339 22.674 8.777q27.794 8.777 56.32 8.777c5.303 0 10.264-0.412 14.846-1.2l165.778-234.84zM386.639 436.165v98.065l58.207-82.456c-14.199-2.063-28.262-5.315-42.116-9.757-5.364-1.707-10.728-3.657-16.091-5.851zM553.404 436.896c-3.028 1.629-6.112 3.148-9.196 4.557l-105.947 150.079c14.185 4.454 28.752 6.766 43.708 6.766 11.459 0 22.674-1.95 33.402-6.095 7.070-2.682 17.067-7.802 30.232-15.604 12.19-6.827 21.455-11.947 28.282-14.629 13.41-5.608 26.331-8.533 39.010-8.533 18.286 0 36.328 0.975 54.37 3.17v-138.971c-15.848-2.682-33.89-4.145-54.37-4.145-9.265 0-17.31 1.219-24.381 3.901-4.389 1.707-11.215 5.364-20.236 10.971-6.339 3.657-11.215 6.583-14.872 8.533z" />
<glyph unicode="&#xe941;" glyph-name="UnderLine" d="M183.365 472.137c0.488-11.459 1.463-23.162 3.17-35.352 2.438-17.067 6.095-33.646 10.728-49.737 5.608-20.48 13.166-39.741 22.187-57.783 10.728-21.699 23.65-41.448 38.766-59.002 17.554-20.236 37.547-37.547 59.977-51.931 25.112-15.848 52.907-28.038 83.627-36.328 33.158-8.777 69.241-13.166 108.495-13.166s75.337 4.389 108.251 13.166c30.964 8.29 58.758 20.48 83.627 36.328 22.674 14.385 42.667 31.695 59.977 51.931 15.116 17.554 28.038 37.303 39.010 59.002 9.021 18.042 16.579 37.303 22.187 57.783 4.632 16.091 8.29 32.67 10.728 49.737 1.707 12.19 2.682 23.893 3.17 35.352 0.244 5.851 0.244 10.484 0.244 14.141v364.008h-73.143v-375.223c-0.488-9.021-1.463-18.286-2.682-28.038-1.95-13.653-4.876-27.063-8.533-39.985-4.632-16.091-10.484-31.208-17.31-45.105-8.29-16.335-17.798-30.964-29.013-44.13-12.678-14.629-27.307-27.307-43.886-37.79-18.53-11.947-39.741-20.968-63.39-27.307-26.575-7.314-56.564-10.728-89.234-10.728-32.914 0-62.659 3.413-89.478 10.728-23.406 6.339-44.617 15.36-63.39 27.307-16.335 10.484-30.964 23.162-43.642 37.79-11.215 13.166-20.724 27.794-29.013 44.13-6.827 13.897-12.678 29.013-17.31 45.105-3.657 12.922-6.583 26.331-8.533 39.985-1.219 9.752-2.194 19.017-2.438 28.038-0.244 2.682-0.244 5.12-0.244 7.558v367.665h-73.143v-364.008c0-3.657 0-8.29 0.244-14.141zM842.894 41.413v75.093h-661.699v-75.093h661.699z" />
<glyph unicode="&#xe942;" glyph-name="UnorderedList" d="M236.008 703.025v75.093h626.834v-75.093h-626.834zM108.739 776.899l75.093 0.244 0.244-76.556-75.093-0.244-0.244 76.556zM183.833 582.095l-75.093-0.244 0.244-76.556 75.093 0.244-0.244 76.556zM723.139 506.27v75.093h-485.425v-75.093h485.425zM108.983 310.248l-0.244 76.556 75.093 0.244 0.244-76.556-75.093-0.244zM822.857 384.61h-585.143v-75.093h585.143v75.093zM108.739 191.756l0.244-76.556 75.093 0.244-0.244 76.556-75.093-0.244zM912.823 116.419l-0.488 75.093-674.865-3.413 0.488-75.093 674.865 3.413z" />
<glyph unicode="&#xe943;" glyph-name="CloudSafe" d="M883.81 406.298c8.777 46.324 13.166 98.011 13.166 154.819v210.895l-384.975 107.276-384.975-107.276v-210.895c0-57.539 4.389-109.714 13.166-156.282 10.971-57.539 28.77-108.983 53.882-154.088 60.952-109.714 163.596-183.345 308.419-221.379l9.509-2.438 9.509 2.438c144.579 37.303 247.467 111.421 308.663 222.354 24.869 45.349 42.91 96.792 53.638 154.575zM821.882 561.117c0-52.175-3.901-99.23-11.703-140.922-9.509-49.981-24.625-93.867-45.836-132.145q-35.84-65.097-95.086-109.714c-42.91-32.183-95.33-56.808-157.257-73.63-61.928 17.067-114.347 41.691-157.013 73.63-39.741 29.745-71.436 66.072-95.33 108.983-20.968 38.034-36.328 81.92-45.592 131.413-8.046 41.935-11.947 89.478-11.947 142.385v153.844l309.882 86.309 309.882-86.309v-153.844zM298.246 451.281c0-20.236 3.901-39.741 11.703-58.514 7.558-18.042 18.042-33.89 31.695-47.787 13.897-13.897 29.744-24.869 47.542-32.427 18.53-8.046 38.034-11.947 58.27-11.947h155.063c17.067 0 33.646 3.413 49.25 9.996 15.116 6.339 28.526 15.36 40.229 27.063s20.724 25.112 27.063 40.229c6.583 15.848 9.996 32.183 9.996 49.25 0 13.653-2.194 26.819-6.339 39.497-4.145 12.434-9.996 23.893-17.798 34.621-7.558 10.484-16.579 19.505-27.307 27.307-1.95 1.463-3.901 2.682-5.851 4.145v1.707c0 16.335-3.17 31.939-9.265 46.811-6.095 14.385-14.385 27.063-25.356 38.278s-23.65 19.748-38.034 26.087c-14.872 6.339-30.232 9.509-46.568 9.509-12.922 0-25.6-2.194-37.79-6.339-11.703-3.901-22.674-9.752-32.67-17.31-9.996-7.314-18.53-15.848-25.844-26.088-0.731-1.219-1.707-2.438-2.438-3.657-2.194 0.244-4.145 0.244-6.339 0.244-20.236 0-39.741-3.901-58.27-11.947-17.798-7.558-33.645-18.53-47.542-32.427-13.653-13.897-24.137-29.745-31.695-47.787-7.802-18.773-68.776 104.391-11.703-58.514zM593.011 552.218c2.438-5.608 3.657-11.459 3.657-17.798 0-4.145-0.731-8.533-1.95-12.922l-9.996-34.621 34.133-11.459c10.484-3.657 19.017-9.752 25.6-18.53 6.339-8.777 9.509-18.773 9.509-29.745 0-7.070-1.219-13.653-3.901-19.992-2.682-6.095-6.339-11.703-11.215-16.335-4.632-4.876-10.24-8.533-16.335-10.971-6.339-2.682-12.922-4.145-19.992-4.145h-155.063c-9.996 0-19.505 1.95-28.77 5.851-8.777 3.901-16.579 9.265-23.406 16.091-7.070 7.070-12.19 15.116-16.091 24.137-3.901 9.265-5.851 19.261-5.851 29.501s1.95 20.236 5.851 29.501c3.901 9.021 9.021 17.067 16.091 24.137 6.827 6.827 14.629 12.19 23.406 16.091 9.265 3.901 18.773 5.851 28.77 5.851 6.339 0 12.19-0.731 17.798-2.194l34.621-9.752 10.971 34.133c3.17 9.265 8.29 16.579 16.091 22.43 7.558 5.608 16.091 8.533 25.6 8.533 11.947 0 22.43-4.389 30.964-13.166 4.145-4.145 7.314-9.021 9.509-14.629z" />
<glyph unicode="&#xe944;" glyph-name="Harm" d="M194.072 250.747c-25.112 45.105-42.91 96.549-53.882 154.088-8.777 46.568-13.166 98.743-13.166 156.282v210.895l384.975 107.276 384.975-107.276v-210.895c0-56.808-4.389-108.495-13.166-154.819-10.728-57.783-28.77-109.227-53.638-154.575-61.196-110.933-170.423-185.051-308.663-222.354l-9.509-2.438-9.509 2.438c-144.823 38.034-247.467 111.665-308.419 221.379zM512 104.705c61.928 16.823 114.347 41.448 157.257 73.63q59.246 44.617 95.086 109.714c21.211 38.278 36.328 82.164 45.836 132.145 7.802 41.691 11.703 88.747 11.703 140.922v153.844l-309.882 86.309-309.882-86.309v-153.844c0-52.907 3.901-100.45 11.947-142.385 9.265-49.493 24.625-93.379 45.592-131.413 23.893-42.91 55.589-79.238 95.33-108.983 42.667-31.939 95.086-56.564 157.013-73.63zM565.816 453.324l103.999-104.389-53.15-52.907-103.778 104.168-103.999-104.385-53.149 52.907 104.218 104.606-103.924 104.311 53.15 52.907 103.704-104.090 103.97 104.36 53.15-52.907-104.192-104.582z" />
<glyph unicode="&#xe945;" glyph-name="Shield" d="M883.81 406.298c-10.728-57.783-28.77-109.227-53.638-154.575q-91.794-166.4-308.663-222.354l-9.509-2.438-9.509 2.438c-144.823 38.034-247.467 111.665-308.419 221.379-25.112 45.105-42.91 96.549-53.882 154.088-8.777 46.568-13.166 98.743-13.166 156.282v210.895l384.975 107.276 384.975-107.276v-210.895c0-56.808-4.389-108.495-13.166-154.819zM764.343 288.050c21.211 38.278 36.328 82.164 45.836 132.145 7.802 41.691 11.703 88.747 11.703 140.922v153.844l-309.882 86.309-309.882-86.309v-153.844c0-52.907 3.901-100.45 11.947-142.385 9.265-49.493 24.625-93.379 45.592-131.413 23.893-42.91 55.589-79.238 95.33-108.983 42.667-31.939 95.086-56.564 157.013-73.63 61.928 16.823 114.347 41.448 157.257 73.63q59.246 44.617 95.086 109.714z" />
</font>
</defs>
</svg>
